<svg width="32" height="32" viewBox="0 0 32 32" fill="none" xmlns="http://www.w3.org/2000/svg">
	<circle cx="16" cy="16" r="16" fill="url(#paint0_linear)" />
	<path fill-rule="evenodd" clip-rule="evenodd"
		d="M19.9707 7.20001C17.4803 7.20001 15.6815 9.19209 15.2017 10.5987C14.3601 12.7633 14.7154 14.426 15.0285 15.8923L15.0512 15.9991C15.3419 17.3628 15.6163 18.6508 15.2234 20.2673C15.1869 20.4886 15.1221 20.7063 15.0307 20.9143C14.5812 21.9452 13.5617 22.6109 12.4338 22.6109C10.8728 22.6109 9.60277 21.3485 9.60277 19.7964C9.60277 18.2437 10.8728 16.9805 12.4338 16.9805C12.8542 16.9805 13.2582 17.0706 13.6355 17.2478L13.9643 17.4025L13.5546 14.9127L13.4253 14.8867C13.101 14.8218 12.7673 14.7892 12.4338 14.7892C9.65803 14.7892 7.3999 17.0353 7.3999 19.7964C7.3999 22.5576 9.65803 24.8036 12.4338 24.8036C14.7381 24.8036 16.7435 23.2539 17.3075 21.0474C17.8778 19.3192 17.6112 17.7424 17.2333 16.0072L17.1911 15.8141C16.8203 14.1169 16.5273 12.7763 17.4106 11.0062C17.8756 10.026 18.8803 9.39237 19.9707 9.39237C21.531 9.39237 22.8007 10.6548 22.8007 12.2068C22.8007 13.7588 21.531 15.0217 19.9707 15.0217C19.5838 15.0217 19.2081 14.9453 18.8528 14.794L18.5334 14.6584L18.9368 17.1101L19.0695 17.1343C19.3643 17.1873 19.6676 17.2145 19.9707 17.2145C22.7458 17.2145 25.0035 14.9679 25.0035 12.2068C25.0035 9.44603 22.7458 7.20001 19.9707 7.20001Z"
		fill="white" />
	<defs>
		<linearGradient id="paint0_linear" x1="-0.264463" y1="15.1351" x2="29.2813" y2="14.8475"
			gradientUnits="userSpaceOnUse">
			<stop stop-color="#5569DB" />
			<stop offset="1" stop-color="#8572FF" />
		</linearGradient>
	</defs>
</svg>