<svg xmlns="http://www.w3.org/2000/svg" viewBox="0 0 412.76 521.14">
	<defs>
		<style>.cls-1{fill:#1c1b26;}</style>
	</defs>
	<g id="Layer_2" data-name="Layer 2">
		<g id="Layer_1-2" data-name="Layer 1">
			<path class="cls-1"
				d="M211.19,422.92c-1-.77-2.41-.41-3.87-.26-3,.33-5.74-.94-8.59-1.61-1.62-.39-1.46-1.89-1.6-2.65-.75-4-1-8.15-1.64-12.22-.42-2.94-1-5.92-.47-8.82s-1.94-5.72.44-8.53c.24-.29.82-2.61-.52-3.68a1.1,1.1,0,0,1-.46-1.36c1.65-3.62,1.68-7.68,3.28-11.37.73-1.69,2.27-2.63,2.79-4.38.25-.85,1.2-1,1.83.11a24.94,24.94,0,0,1,2.84,7.71c1.46,8,4.15,15.59,6.35,23.35,1.07,3.75,3.72,6.69,4.44,10.4.44,2.3,1.9,3.76,3,5.55a7.19,7.19,0,0,1,1.2,4.66c-.45,3.4-2.52,4.39-6.88,3.5C212.71,423.19,212.1,423.09,211.19,422.92Z" />
			<path class="cls-1"
				d="M42.21,426.53c-.47,2.35-5.65,4.57-7.55,3.11a19.47,19.47,0,0,1-6.28-7.17c-3.5-7.22-5.27-14.89-7.72-22.39a92.79,92.79,0,0,1-4.57-19.92c-.22-2.33-1.1-4.8-.32-7.26.24-.75,0-1.72,1.21-1.79.93-.05,1.11.5,1.48,1.22a69.07,69.07,0,0,1,4.28,10.74A73.32,73.32,0,0,0,28,394.58c2.35,4.56,4.12,9.43,6.67,13.87,2.73,4.75,5,9.73,7.43,14.6A4.19,4.19,0,0,1,42.21,426.53Z" />
			<path class="cls-1"
				d="M149.49,414.46c-4.31,0-8.48-1.18-12.75-1.45-2.45-.16-5.76-3.13-6.41-5.52-1.73-6.38-1-7.16,5.59-9.16a63.22,63.22,0,0,1,19.31-2.88c3.82.06,4.07,1.74,3.91,5.39a13.28,13.28,0,0,1-.83,4.42,9.67,9.67,0,0,0-.47,6.7c.23,1.05-1.27,1.51-1.8,1.74A12.78,12.78,0,0,1,149.49,414.46Z" />
			<path class="cls-1"
				d="M170.42,416.73c-3.59-.83-5.16-4.1-3.21-9.08,1.07-2.75,1.18-5.82,2.53-8.5a2.35,2.35,0,0,1,2.11-1.51c3.85-.31,7.7-.73,11.54-1.23,1.08-.15,2-.1,2.2,1s2.33,2,.57,3.46c-.41.34-1.28,1-.47,1.44,2.33,1.29.71,3.27.93,4.86.25,1.83,0,3.57.9,5.45,1.31,2.7-1.89,6-5.44,5.66S175.31,417.4,170.42,416.73Z" />
			<path class="cls-1"
				d="M112.64,375.66c3.36.74,4,3.49,3.39,6.62-1.46,7.29-7.2,7.69-12.63,9-2.45.57-5,.39-7.39,1.53a5.45,5.45,0,0,1-6.56-2.35c-.76-1.71.72-5.92,2.38-7.27,3.87-3.14,7.94-5.47,13.22-5.51,1.52,0,3.34-1,5-1.52A23.55,23.55,0,0,1,112.64,375.66Z" />
			<path class="cls-1"
				d="M121.35,410.63c.19,1.78-1.11,2.37-2.87,2.49-6.36.43-12.71,1.22-19.08.55a4.3,4.3,0,0,1-3.63-3.15c-.76-2.11.32-3.64,1.3-5.09a7.15,7.15,0,0,1,4.32-2.74c4.75-1.14,9.48-2.43,14.3-3.1,1.91-.26,4.2.4,4.45,3.51C120.32,405.5,122.45,407.63,121.35,410.63Z" />
			<path class="cls-1"
				d="M12.85,440.1c-1.14-2.25-2.47-4.22-3.39-6.23-1-2.16-1-4.94-1.27-7.45a17.15,17.15,0,0,0-.6-3.47,8.73,8.73,0,0,1-.16-5.17,31.78,31.78,0,0,0,1-9.19c0-2.38,1.79-4.21,2.77-6.26.34-.7,1.91-.69,2.5.85,2.51,6.54,4.29,13.22,3.2,20.27a55,55,0,0,1-2.16,10.44,19.87,19.87,0,0,0-.42,4.27A2.06,2.06,0,0,1,12.85,440.1Z" />
			<path class="cls-1"
				d="M135,377.39a62.93,62.93,0,0,1,11.13.57c2.2.25,4.35.55,5.79,2.48.58.77,2,1.93,1,2.5s-1.62,2-3.32,2.33c-5,1.09-10.32.11-15.16,2.48-1.74.85-4,.69-6,.89a2,2,0,0,1-1.42-.54c-2.12-2.18-1.05-4.88-.83-7.28a3.32,3.32,0,0,1,3.2-3.11C131.05,377.61,132.6,375.92,135,377.39Z" />
			<path class="cls-1"
				d="M240,424.12c-3.61-.82-4.93-4.34-3.77-10.06.59-2.93,4.85-5.21,8.27-4.44,5.81,1.32,8.68,4.73,7.71,9.19C251.19,423.78,246.86,425.66,240,424.12Z" />
			<path class="cls-1"
				d="M280.53,420.2c-.95,3.12-3.39,2.33-4.95,2.79a19.53,19.53,0,0,1-6.55.68c-1.9-.11-3.8-.66-4.41-3.14-.38-1.53-1.52-2.87-2.17-4.36-.78-1.83-1.45-3.82.05-5.57s3.55-1.47,5.34-.34c4,2.48,7.88,5,11.74,7.64C280.46,418.5,281.44,419.49,280.53,420.2Z" />
			<path class="cls-1"
				d="M79.61,391.36c-3.23,5.06-7,8.92-12.72,10.17-2.73.6-5.38-3.07-4.24-5.82,1.75-4.23,4.84-6.83,9.53-7.19,1.79-.13,3.49-1.24,5.41-.28A3,3,0,0,1,79.61,391.36Z" />
			<path class="cls-1"
				d="M72.34,418.77c-.87-.3-1.74-.64-2.63-.9-1.69-.51-2.15-2.11-2.31-3.4a3.05,3.05,0,0,1,2-2.8c3.43-1.5,6.84-3,10.21-4.63,1.43-.68,2.39-.11,3.31.84,2.79,2.92,2.23,6.95-1.22,8.92C79.29,418.19,74.07,419.32,72.34,418.77Z" />
			<path class="cls-1"
				d="M44,404.82c.76-2.71,4.65-5.51,6.74-4.84a4.31,4.31,0,0,1,3,5.88c-.56,1.77-6,4.48-7.81,3.93S43.24,407.46,44,404.82Z" />
			<path class="cls-1"
				d="M173.58,381.8a5.7,5.7,0,0,1,.73,0,3.2,3.2,0,0,1,3,3.06c.13,1.39-1.56,2.12-2.67,2.42a10.72,10.72,0,0,1-8.78-1c-1.61-1-.43-2.25-.66-3.34s.85-.86,1.65-1.08A11,11,0,0,1,173.58,381.8Z" />
			<path class="cls-1"
				d="M243.19,152.74c-10.83-2.44-19.13-7.42-23.16-17.83-1.85-4.76-2.38-9.67-.51-14.46,1.53-3.92,5.18-5.57,9-6.48,15.87-3.72,31.52-8.07,46.51-14.66,4.25-1.87,8.31-3.92,12.35-6.16,5.65-3.13,8.17-2.33,11.3,4.51,2.07,4.53,2.13,9.22,2.44,13.74a25.38,25.38,0,0,1-1,7.5C298.3,126,294,131.68,289.38,137a43.7,43.7,0,0,1-15.1,11.17c-5.88,2.7-12,3.8-18.23,4.55C251.68,153.26,247.12,154.4,243.19,152.74Z" />
			<path class="cls-1"
				d="M136.19,188.31c-2.56,2.9-2.15,7.4-5.46,9.92-2.79,2.13-5.57,2.69-7.74.82a12,12,0,0,0-5.35-2.32c-10.53-2.35-17.55-9.92-17.49-19.46,0-7.6,2.67-11.38,10-14.16,5.51-2.08,11.11-4.15,15.68-8.26a113.37,113.37,0,0,1,11.54-9.07,16.12,16.12,0,0,1,12.34-2.52c6.48,1.15,6.34,2.84,5.87,9.28-.24,3.21-1.12,6.73.05,10.22.9,2.69-1.52,5-3.2,6.56-5.51,5.26-9.5,11.8-14.9,17.12-.54.53.2,1.95-1.22,2-.08,0-.16-.13-.23-.19l.11.2-.23-.14Z" />
			<path class="cls-1"
				d="M14.31,456.44c.81-.33.78-1,.66-1.68l.07-.05c1.82-1.93.86-4.34.86-6.48,0-1.28.32-1.58,1.24-1.4,1.55.32,3.28.53,4.51,1.39,4,2.77,7.89,3,12,.18,2.71-1.81,5.23-4.07,8.16-5.38,5.12-2.29,10-5,15.29-7.06s10.85-3.51,16.18-5.44a99,99,0,0,1,15.92-4.76c5.34-.95,10.79-2.17,16.37-2.4,5.75-.23,11.55-.3,17.29-.5A112.77,112.77,0,0,1,145.56,424c5.7,1,11.52.95,17.26,1.83,4.83.75,9.82.48,14.7,1,2.55.26,5,1.48,7.54,1.77,7.34.87,14.57,2.52,21.78,3.92,8.12,1.57,16,.7,24,.87,5,.11,10,.36,15,1,3.05.37,6.23-.56,9.35-.6,3.84,0,7.75.75,11.49.21,3.41-.5,6.83-.72,10.24-1.14,5.51-.68,11-1.49,16.47-2.59a32.35,32.35,0,0,0,7.68-2.81c3.85-1.86,7.9-3.15,11.71-5.22,4.07-2.2,7.85-4.78,11.66-7.31a10.07,10.07,0,0,1,7-1.75c8.78,1.24,11-6.28,10-12.06-.74-4.35-2.09-8.57-5.05-11.43-3.95-3.82-7.29-9.28-14.27-8.4-3.23.41-5.85,1.84-6.63,5.09-1.26,5.22-4.41,7.48-9.67,8.12a102.55,102.55,0,0,1-16.69.86,101.43,101.43,0,0,1-24.58-3.57c-3.28-1-6.24-3-9.3-4.67-4.88-2.62-10.23-4.18-15.14-6.69-2.35-1.21-5-1.64-7.21-3.05-3.87-2.46-8.32-3.41-12.65-4.36-5.74-1.26-6.21-2.65-8.09-8.4-1.16-3.57.14-7.22-1.72-10.44-.1-.18-.29-.36-.28-.54.22-4.52-1.3-8.67-3-12.71a9.18,9.18,0,0,0-7-5.76c-2.85-.52-3.85.81-5.15,3.36-2.76,5.42-2.23,11.54-4.39,17.08-1.81,4.62-3.56,6.59-8,5.43-5.38-1.39-11-1.42-16.23-3.17-5.05-1.7-10.36-1.47-15.45-2.76a62.42,62.42,0,0,0-11.63-1.58c-4.07-.23-8.26-.3-12.4-.35-6.8-.07-13.56.48-20.34.83-4.19.22-8,1.86-12,2.82-5,1.2-9.77,2.95-14.62,4.52-4,1.3-7.94,2.74-12,4-3.19,1-6.16,2.59-9.3,3.55-4.67,1.43-7.42,5.17-11,7.89-4,3-6.33,7.87-11.28,9.76-2.45.94-4,.63-5-2.15-2.45-6.89-5.34-13.62-7.44-20.64-.55-1.85.29-3.78,1.06-5.21.88-1.61,1.37-3.56,2.57-4.84,2.48-2.66,3.34-6.22,5.07-9.22a131.78,131.78,0,0,0,6.63-12.65c1.62-3.7,2.57-7.79,5.41-11.08,3.42-4,2.49-11.79-.74-15.9-1.85-2.36-3.58-4.81-2.94-8.58.83-4.9.82-9.76,3.51-14.34.93-1.58,2.17-3.9,2-6.27a1.83,1.83,0,0,1,1-1.79c.77-.46,2.9-.85.39-2.06-.39-.18-.33-.73.06-1.05,2.47-2.05,3.12-5,4.12-7.87A5.35,5.35,0,0,1,53.25,261c1.19-1.26,3.39-1.85,2.76-4.28,3-.27.34-3.66,2.38-4.31,2.55-.81,2.34-3.17,2.86-5s2.31-1.13,3.14-2.11c-2.72-1.73,0-3.61.19-5.24A16.42,16.42,0,0,1,66.8,234c1.53-2.68,2.73-5.49,4.93-7.77,6.51-6.72,8.72-18.37,2.81-26.61-4.26-6-8.37-12-13.59-17.24-2.85-2.87-4.28-7.07-5.81-11.07-1.93-5.06-3.3-10.27-5.07-15.35a11.6,11.6,0,0,1-.51-4c.08-7.18-2.72-13.9-3-21-.36-8.19-.53-16.24,2.06-24.26,1.18-3.69,2.56-7.35,3.62-11.1,1-3.57,4.27-5.72,6.45-8.56,4.12-5.36,10.07-8.69,15.52-12.33a67.66,67.66,0,0,1,18.38-8.24c7.74-2.31,15.41-4.63,23.55-5.16a39.1,39.1,0,0,1,10.26.59c1.41.28,2.75,1.35,4.24.09.48-.4,1-.07,1.57.46,5.22,5,11.52,4.55,17.85,3.16,5.69-1.24,11.16-3.23,16.7-5,6.75-2.14,11.71-6.75,17.57-10.05A158.44,158.44,0,0,0,200.6,40.4c2.16-1.59,4.16-3.43,6.29-5,5.36-3.88,10.19-8.51,16.63-10.94,4.93-1.86,10.07-3.12,14.67-6.2,3.72-2.5,8.56-3.34,12.81-5.22s8.55-3.18,12.87-4.62,8.47-2.73,12.73-4c4.47-1.32,9-2.55,13.45-3.76,5.06-1.37,10.23-.46,15.18.25a53.59,53.59,0,0,1,14.83,5c6.1,2.87,10.81,7.61,15.87,11.87,3.28,2.76,6.66,5.43,9.38,8.82a41.69,41.69,0,0,1,6.61,11.7c2.71,7.18,6.08,14.1,9.12,21.15,2.93,6.8,5.5,13.77,8.75,20.41,3.89,7.92,7.12,16.13,11.41,23.89a112.68,112.68,0,0,0,11,17.11c3.94,4.8,7.37,10.08,12.05,14.36a23.54,23.54,0,0,1,7.29,12.11c.69,3.26,1.57,6.68,1,10.32-.84,5.39-1.09,10.88-1.88,16.31-.43,2.92-2.11,5.25-2.8,8a20.07,20.07,0,0,1-4.16,8.09c-3,3.57-5.65,7.52-9.07,10.59-3.08,2.76-7,4.73-10.79,6.5-5.23,2.43-10.85,4-16.2,6.16-3.92,1.56-8.07,2-11.95,3.59-2.55,1-5.46.74-8.23.89-6.66.36-11.47-3.56-16.76-6.63-3.32-1.93-7.17-2.94-10.75-4.43a29.66,29.66,0,0,0-4.2-1.68c-4.84-1.26-7.06.66-6.09,5.49.27,1.38-1.43,3.1-3.16,2.77-4.58-.9-9.26-.81-13.87-1.3-3.7-.38-7.87,0-10.81,3.43-1.65,1.93-4.47,2.22-6.14,4.59-1.81,2.58-4.77,4.33-7,6.64a28.72,28.72,0,0,1-2.53,2.1c-6.32,5.26-10.76,11.5-10.9,20.26A51.54,51.54,0,0,0,257,262.17c.85,3.48,3.05,6.48,5.13,9.31a49.29,49.29,0,0,0,12.2,11.62c5.31,3.56,10.16,7.75,15.55,11.24,4.09,2.65,7.8,6.66,11.3,10.48,2.27,2.49,4.66,4.87,6.77,7.51,3,3.75,6.17,7.38,9,11.29a31,31,0,0,0,3.74,3.91c4.07,4,6.2,9.25,9.1,13.87,2.26,3.62,4.46,7.58,6.74,11.23A89.39,89.39,0,0,1,343.34,366c1.93,4.72,4.37,9.33,5.19,14.52a56.34,56.34,0,0,0,2.18,7.29A40.62,40.62,0,0,1,352.57,399c0,3.72.65,7.75-.89,11.49-.71,1.71,0,3.61-.16,5.45-.24,3-2.46,5.2-2.74,8.07a24.79,24.79,0,0,1-3.55,10.16c-3.05,5.14-6.13,10.33-10.48,14.57-.47.46-1.24.77-1.68.45a2.78,2.78,0,0,1-1-1.79,10.85,10.85,0,0,0-16.32-8c-5.84,3.53-10.73,8.5-16.93,11.31-3.47,1.57-7.09,2.93-10.51,4.59a47.13,47.13,0,0,1-14,4c-4.91.69-10,1-14.89,1.83-5.95,1.07-12,1.56-18,2.15a51.44,51.44,0,0,1-10.56.47c-4.39-.47-8.89.16-13.31-.14-5.45-.38-10.86-1.3-16.3-1.84-7.68-.77-15.39-1.26-23.06-2.15-5.67-.66-11.26-2.14-16.94-2.5-3.62-.23-7.27-.36-10.89-.72-4.71-.48-9.58.49-14.11-2.13-.77-.44-3.21.37-4.94.26-2.49-.17-5.6,0-7.34-.71-3.15-1.29-6.18-.1-9.3-1.06a23.9,23.9,0,0,0-10.77-.31c-8.18,1.49-16.57,1.69-24.79,3.19-6.76,1.23-12.89,4-19,6.86-4,1.85-8,3.72-12,5.44s-8.69,3.77-12.16,7.68c-3.16,3.54-6.76,6.74-9.64,10.6-4.09,5.49-8.22,10.9-7.87,18.35a13.53,13.53,0,0,0,3.95,9.06,11.86,11.86,0,0,0,6.78,3.91c-1.6,1.47-2.76,3.59-5.35,3.56-.64-.34-1.43-.46-1.79-1.2-.26-.94-.72-.93-1.29-.25-1.72-3.12-5.19-4.21-7.6-6.58C8.15,508.29,3.63,503,1.87,496.43c-1.62-6.07-3.2-12.52-.09-18.8A2.86,2.86,0,0,1,3,476.33c.27,1.4,1,1.24,2,.72,1.31-.66,2.27-1.4,2-3.06a3,3,0,0,1,.37-2.79c1.79-2.42,6-3.41,4.85-7.7,0-.12.4-.46.66-.54,1.47-.4,2-1.76,2.77-2.79C17.63,457.7,17.48,457.31,14.31,456.44ZM212,203.89c-.74,1-1.44,2.17-.95,3.47,3.19,8.42-.76,15.68-4.75,22.25-3.25,5.36-8.31,9.73-13,14.13-4.84,4.59-10.58,8.09-16,11.91A113.27,113.27,0,0,1,161,264.79c-6.76,3.22-10.81,8.9-9.91,14.94.56,3.76,4.78,7.7,8.29,6.51,4.28-1.45,9-1.27,13-3.88A20.43,20.43,0,0,1,183,278.93c4.6-.08,9.14-.81,13.68-1.15a125.67,125.67,0,0,0,17.29-2c5.9-1.28,12-2.68,16.24-6.53,3.82-3.51,8.42-7.68,6.94-14.67-.78-3.69-3.2-6.68-3.44-10.44,0-.16-.49-.28-.72-.45a7.38,7.38,0,0,1-3-6.14,91.42,91.42,0,0,0-2.12-22.16c-.3-1.27-.3-3.14-2-3.83-.1-.16-.21-.32-.32-.48.11-1.83-1.53-2.69-2.23-4.07,0-.89.48-2.06-.41-2.6-2.84-1.71-5.79-3.23-9.31-2.8C212.11,201.78,211.58,202.48,212,203.89ZM89.35,105.05c-1.69-2.13-3.31-.12-4.9-.07-7.55.24-15.31-1-22.35,3.62-3,2-4.38,4.53-5.81,7.31-3.11,6-2.91,12.68-3,19.18-.06,2.42-.91,4.79-.14,7.3,1.95,6.4,4.39,12.59,6.88,18.79S65.23,173.4,68,179.44c2.38,5.14,5.6,9.69,8.72,14.36,1.52,2.28,3.62,4,5.08,6.28,2.75,4.26,5.81,7.74,11.76,6.6,1.27-.24,3.33-1,4.11-.24,1.89,1.93,4.28,3.32,5.86,5.59s6.76,3.53,9.36,2.38c3.44-1.51,6.86-3.08,10.36-4.41,4.09-1.54,7.5-4.13,9.31-7.88,2.21-4.59,5.57-8.32,8.3-12.48a77.53,77.53,0,0,1,10.42-13.34c4.64-4.53,10.33-7,16.19-9,5.2-1.8,10.53-.08,15.52,1.37,5.5,1.59,10.31,4.91,15.28,7.75,3,1.75,6.28,3.44,9.93,3.16,1.58-.11,3.3-.54,2.65-3.32-.59-2.55-2.53-3.75-3.84-5.57-1.48-2-1.28-6,.34-5.91,1.85.09,3.59-1.24,5.69.1,1.25.79,1.92,2.14,3.27,2.66,6.57,2.55,12.07,7.68,19.71,7.7,3.78,0,7.58,1.25,11.34,1.15a100.18,100.18,0,0,0,14.85-1.69c5-.89,9.84-2.3,14.74-3.54.7-.18,1.42-1.4,2-.19a1.6,1.6,0,0,1-.87,2.48c-1.91.82-4.08,1.22-5.47,3.23-1.81,2.63-1.6,4.88,1,6.76,3.47,2.49,7.36,2.33,11,1,2.74-1,5.61-1.31,8.37-2.39,3.58-1.39,7.38-2.42,11-3.86a59.32,59.32,0,0,0,11.81-6.75c3.46-2.41,6.46-5.27,9.62-7.91,4.09-3.42,7.08-8,10.33-12.27a39.06,39.06,0,0,0,5-8,91.48,91.48,0,0,0,2.69-8.85c1.07-3.51.58-7.18,1.3-10.76a23.55,23.55,0,0,0,.35-5.86c-.18-2.51-.34-5.14-.57-7.67-.54-6-1.31-12-4.32-17.09-2.43-4.1-3.81-8.56-5.84-12.76A104,104,0,0,0,316.43,54a30.72,30.72,0,0,0-9.92-7.33c-4-1.72-8-3.55-12.33-4.24-3.33-.53-6.72-1.55-10-1.31-6.58.47-11.71,4.25-16.4,8.64a96.62,96.62,0,0,1-11.95,9.39c-2,1.35-4.46,2.59-5.87,4.08-2.43,2.59-5.43,3.94-8.2,5.76-3.71,2.46-7.93,4-11.67,6.52-2.18,1.45-4.72,3-7.2,3.19-3.8.25-7.18,1.75-10.79,2.5-6,1.24-11.89,3.19-18,3.81A13.91,13.91,0,0,0,181.81,103a23.64,23.64,0,0,0,4.4,7.64c.83,1.09.11,3.15,2.15,3.39,1.14.13,1.88,1.17,1.57,2a2.31,2.31,0,0,1-3,1,15.53,15.53,0,0,1-4.84-2.53c-5.29-4.6-10.46-9.49-13-16.16-1.88-5-5.42-7.62-9.91-9.53-2.18-.92-4.07.67-4.31,3.14a10.36,10.36,0,0,0,2.8,7.71c2.52,3,4.57,5.91,4.88,9.86.19,2.48-.28,5-2.12,6.5s-4.19.35-5.45-1.28c-2.35-3.08-5.83-4.94-8.09-8.08-1.27-1.77-3.46-1.9-5.41-2.07-1.62-.14-2.07,1.72-2.23,2.59-.41,2.34.67,4.62,1.65,6.71,2.27,4.82,6.59,8.46,8.15,13.68a4.61,4.61,0,0,1-1.57,5.18c-1.5,1.07-2.64-.15-3.88-1.24-3.33-2.92-5.05-6.78-7.1-10.55a83.14,83.14,0,0,1-6.17-14.16,21.25,21.25,0,0,0-6.68-10,5,5,0,0,0-5.31-.31c-1.27.56-2,1.61-2.1,3.47a10.29,10.29,0,0,0,2.46,7.36c1.33,1.76,2.1,3.79.86,5.38s-3.39.82-5.12,0c-3.37-1.5-6.83-2.84-10.29-4C99.37,107,94.24,106.19,89.35,105.05Zm16.86,160.27a37.06,37.06,0,0,1-.5,3.77,10.19,10.19,0,0,0,3.75,8.25c2.86,2.48,8.07,1.55,11.09-1.27,1.77-1.64,3.27-3.56,4.89-5.37,5.52-6.2,13.79-7.88,20.53-12.09,3.66-2.29,7.66-4.5,11.26-6.92,6-4,11.15-9.18,16.16-14.42a13.1,13.1,0,0,0,3-3.82c2.11-5.54,3.74-11.17,1.4-17.13a28.2,28.2,0,0,0-6.54-9.81c-2.71-2.66-6.52-3.75-9.85-5.53-2.22-1.18-9.62-.39-11.52,1.28a45.35,45.35,0,0,1-5.06,4.15c-1.33.85-1.18,2.56-2.55,3.32-2.74,1.54-4.73,4-7,6.1-3.71,3.44-5.76,8.18-8.93,11.92-5.38,6.36-11.61,12-17.62,17.8a9.63,9.63,0,0,0-2.33,9.85C107.45,259,108.17,262.09,106.21,265.32Zm-2.92.9c1.42-8.57.23-12.51-7.67-15.4-.53-.2-1.42-.9-1.36-1,1-2.35-1.23-3.51-2-5.06s-.15-3.39-1-5a18.69,18.69,0,0,0-10.71-9.4c-2.89-1-7.88,1.32-7.36,3.88.63,3.13-.47,5.8-.78,8.68A25.74,25.74,0,0,1,67.44,256c-4.23,5.35-7.21,11.11-8.09,17.75-.55,4.14-.39,8.48,3.58,11.47,3.05,2.29,6.43,2.11,9.87,1.56,2.16-.35,4.33-1.26,6.49-.63,5.35,1.56,9.24-1,13-4.16,2-1.73,2.37-4.78,4.43-6.22C100.48,273.19,101.37,269,103.29,266.22Z" />
		</g>
	</g>
</svg>