<svg xmlns="http://www.w3.org/2000/svg" xmlns:xlink="http://www.w3.org/1999/xlink" viewBox="0 0 1000 1000"><defs><style>.cls-1{fill:none;}.cls-2{fill:#cc986d;}.cls-3{fill:#d59861;opacity:0.88;}.cls-17,.cls-3{isolation:isolate;}.cls-4{fill:#bf7c4f;}.cls-5{fill:#93542a;}.cls-6{fill:#3dc5ee;}.cls-7{fill:url(#grad_3);}.cls-8{fill:url(#grad_2);}.cls-9{clip-path:url(#clip-path);}.cls-10{fill:#3a2416;}.cls-11{fill:url(#grad_4);}.cls-12{clip-path:url(#clip-path-2);}.cls-13{fill:#f7ea2f;}.cls-14{fill:url(#grad_4-2);}.cls-15{clip-path:url(#clip-path-3);}.cls-16{fill:#4a3f5a;}.cls-17{opacity:0.5;fill:url(#grad_5);}.cls-18{fill:#bc7846;}.cls-19{fill:#f9f8f2;}.cls-20{fill:#603813;}.cls-21{fill:#c69c6d;}.cls-22{fill:#ff7bac;}.cls-23{fill:#fff;}.cls-24{fill:#c48857;}</style><linearGradient id="grad_3" x1="2356.25" y1="1630.55" x2="2356.25" y2="1907.05" gradientTransform="matrix(0.96, 0.29, 0.29, -0.96, -2233.66, 1335.84)" gradientUnits="userSpaceOnUse"><stop offset="0.03" stop-color="#28aae1"/><stop offset="1" stop-color="#2a3b8e"/></linearGradient><linearGradient id="grad_2" x1="2279.06" y1="1630.94" x2="2279.06" y2="1906.17" gradientTransform="matrix(0.96, 0.29, 0.29, -0.96, -2233.66, 1335.84)" gradientUnits="userSpaceOnUse"><stop offset="0" stop-color="#ea2b7b"/><stop offset="1" stop-color="#2a3b8e"/></linearGradient><clipPath id="clip-path"><path class="cls-1" d="M507.27,336.76c-6.51,36.7,50.88,52,42.8,80.57C540.3,451.77,483.8,447.8,445.74,441c-74.8-13.3-124.68-84.66-111.39-159.39A137.46,137.46,0,0,1,493.79,170.39c53.17,9.46,123.87,48.26,110.81,91.46C598.72,281.22,511.11,315.16,507.27,336.76Z"/></clipPath><linearGradient id="grad_4" x1="2257.75" y1="1769.73" x2="2257.75" y2="1830.73" gradientTransform="matrix(0.02, 1, 1, -0.02, -1388.35, -1961.9)" gradientUnits="userSpaceOnUse"><stop offset="0" stop-color="#ea2b7b"/><stop offset="1" stop-color="#8f288c"/></linearGradient><clipPath id="clip-path-2"><ellipse class="cls-1" cx="448.51" cy="266.01" rx="30.5" ry="18.4" transform="translate(58.35 612) rotate(-72.24)"/></clipPath><linearGradient id="grad_4-2" x1="2095.96" y1="1884.76" x2="2095.96" y2="1945.76" gradientTransform="matrix(0.01, 0.85, 0.9, -0.01, -1382.99, -1521.24)" xlink:href="#grad_4"/><clipPath id="clip-path-3"><ellipse class="cls-1" cx="370.67" cy="241.07" rx="27.56" ry="12.52" transform="translate(24.77 516.5) rotate(-71.57)"/></clipPath><linearGradient id="grad_5" x1="2538.65" y1="1800.97" x2="2538.65" y2="1821.33" gradientTransform="matrix(0.98, 0.17, 0.17, -0.98, -2331.45, 1528.27)" gradientUnits="userSpaceOnUse"><stop offset="0" stop-color="#fff" stop-opacity="0"/><stop offset="1" stop-color="#fff"/></linearGradient></defs><polygon class="cls-2" points="581.02 227.84 816.02 322.39 932.8 219.07 693.1 126.58 581.02 227.84"/><polygon class="cls-3" points="44.89 159.01 169.08 273.8 581.02 227.84 471.64 129.29 44.89 159.01"/><polygon class="cls-4" points="816.25 322.39 581.25 358.96 581.25 227.84 816.25 322.39"/><polygon class="cls-5" points="169.32 273.8 386.8 385.88 581.25 358.88 581.25 227.84 169.32 273.8"/><path class="cls-6" d="M669,429.3c-2.47,7-12.5,10-22.38,6.45s-31.31-17.36-28.84-24.45,27.88-4.54,37.76-1.12S671.43,422.53,669,429.3Z"/><path class="cls-6" d="M527,178.31c93,27.26,145.34,81.74,166.65,102.2,25.41,24.41,29.5,37.58,24.69,45.83-8.78,15.11-82.18-12.23-84.1-6.51s63.07,37.58,53.48,61.09-86.22,3.28-89,12.45c-3.19,10.55,48.71,39.92,42.48,56.21-4.25,11.22-63.73,22.66-182.66-3.69-153.92-34.12-82.66-148-59.41-199.85C415.82,208.78,417.54,146.25,527,178.31Z"/><path class="cls-7" d="M519.7,176.1c68.41,18.4,119.06,57.66,147.75,84.53,39.27,36.75,45.56,50.79,42.07,59.78C703.06,337,621.32,300,617.15,309.8s66,41.61,56.3,65.34-86,3.6-90.91,11.93c-6.53,10.95,46,42.79,41.25,55.56s-67.46,21.64-162.6,3.05C302,414.54,366.39,296.91,389.9,244.46,406.7,206.88,408.49,146.19,519.7,176.1Z"/><path class="cls-8" d="M507.27,336.76c-6.51,36.7,50.88,52,42.8,80.57C540.3,451.77,483.8,447.8,445.74,441c-74.8-13.3-124.68-84.66-111.39-159.39A137.46,137.46,0,0,1,493.79,170.39c53.17,9.46,123.87,48.26,110.81,91.46C598.72,281.22,511.11,315.16,507.27,336.76Z"/><g class="cls-9"><ellipse class="cls-10" cx="422.94" cy="268.5" rx="67.33" ry="92.82" transform="translate(43.53 595.64) rotate(-73.18)"/></g><ellipse class="cls-11" cx="448.51" cy="266.01" rx="30.5" ry="18.4" transform="translate(58.35 612) rotate(-72.24)"/><g class="cls-12"><ellipse class="cls-13" cx="459.18" cy="269.24" rx="30.5" ry="18.4" transform="translate(62.7 624.4) rotate(-72.24)"/></g><ellipse class="cls-14" cx="370.67" cy="241.07" rx="27.56" ry="12.52" transform="translate(24.77 516.5) rotate(-71.57)"/><g class="cls-15"><ellipse class="cls-13" cx="381.36" cy="242.83" rx="27.56" ry="12.52" transform="translate(30.41 527.86) rotate(-71.57)"/></g><ellipse class="cls-16" cx="447.74" cy="483" rx="13.75" ry="99.93" transform="translate(-144.17 771.81) rotate(-73.18)"/><path class="cls-17" d="M533.12,200.52c-1,5.5-21.16,3.49-47.45-1.18S434,191.44,435,186s27.93-11.21,54.22-6.54S534.1,195,533.12,200.52Z"/><path class="cls-6" d="M685.53,428.48c-2.2,7-12,10.29-21.92,7.21s-31.5-16.09-29.3-23.15,27.4-5.51,37.27-2.46S687.72,421.41,685.53,428.48Z"/><path class="cls-6" d="M720.6,351.42c-1,3.57-5.77,5.39-10.78,4.06s-16.09-7.36-15.14-10.93,13.55-3.34,18.56-2S721.55,347.83,720.6,351.42Z"/><polygon class="cls-18" points="386.61 386.08 386.61 873.16 815.66 798.98 815.66 322.73 386.61 386.08"/><path class="cls-19" d="M768.22,632.36c0,4.14-9.64,8.84-9.56,13s10.12,8.53,9.88,12.67-10.91,7.25-11.47,11.31,8.68,10,8,14.1-11.87,5.42-13.07,9.32,6.93,11.31,5.42,15.14-12.59,3.5-14.42,7.17,5.1,12.27,3,15.93-13,1.43-15.38,4.86,3.19,12.9.48,15.93-13-.64-15.93,2.39,1.11,13.23-2,15.93-12.75-2.63-15.94,0-1,13.31-4.46,15.94-12.19-4.62-15.93-2.71-3,13-6.85,14.58-11.31-6.46-15.3-5.1-5,12.27-9.08,13.3-10.12-8-14.26-7.41-6.85,11.31-11,11.71-8.84-9.64-13-9.56-8.6,10.12-12.66,9.88-7.25-10.91-11.31-11.47-10.12,8.68-14.1,8-5.42-11.87-9.32-13.07-11.32,6.93-15.22,5.42-3.43-12.59-7.17-14.42-12.19,5.18-15.93,3-1.44-13-4.86-15.38-12.91,3.19-15.93.48.63-13-2.39-15.93-13.23,1.11-15.94-2.07,2.63-12.75,0-15.94-13.22-1-15.45-4.46,4.62-12.19,2.63-15.93-12.91-3-14.5-6.85,6.37-11.31,5.1-15.3-12.27-5-13.31-9,8-10.19,7.41-14.34-11.31-6.85-11.71-11,9.48-9.56,9.48-13.62-10.11-8.61-9.88-12.75,10.92-7.25,11.48-11.31-8.69-10-8-14.1,11.87-5.42,13.06-9.32-7-11.31-5.41-15.14,12.5-3.5,14.42-7.17-5.18-12.26-3-15.93,13-1.43,15.37-4.86-3.18-12.9-.55-15.93,13.06.64,15.93-2.31-1.12-13.3,2-15.93,12.83,2.63,15.93,0,1-13.31,4.54-15.46,12.19,4.54,15.94,2.63,3-13,6.85-14.58,11.31,6.46,15.29,5.1,4.94-12.27,9-13.3,10.2,8,14.26,7.41,6.93-11.31,11.08-11.71,8.84,9.64,12.9,9.56,8.6-10.12,12.75-9.88,7.17,10.91,11.31,11.47,10-8.68,14.1-8,5.58,12.11,9.8,13.63,11.31-6.93,15.13-5.42S670,508.17,673.66,510s12.27-5.18,15.94-3,1.43,13,4.78,15.38,12.9-3.19,15.93-.48-.56,13,2.39,15.93,13.22-1.12,15.93,2.07-2.63,12.75,0,15.93,13.3,1,15.45,4.46-4.54,12.19-2.62,15.94,12.9,3,14.57,6.85-6.45,11.31-5.09,15.29,12.26,5,13.3,9-8,10.2-7.49,14.34S767.82,628.45,768.22,632.36Z"/><path class="cls-20" d="M765.43,632.6c0,1.51-3.74,4.14-4.86,5.25a11.39,11.39,0,0,0-4.7,6.94,9.55,9.55,0,0,0,4.23,7.4l3.42,3c.56.56,2.31,1.83,2.23,2.71h0a4.42,4.42,0,0,1-1,1,30.49,30.49,0,0,1-3.75,2.54,15.4,15.4,0,0,0-6.13,5.82,8,8,0,0,0,1.91,8c.88,1.27,1.91,2.39,2.87,3.58s2.23,2.23,2.47,3.51-2.79,2.31-4.07,2.94a20.65,20.65,0,0,0-8,4.46c-4.46,5.18,2.31,11.16,4,15.94,0,.71.48.95,0,1.27a20.35,20.35,0,0,1-3.42,1.44,35.59,35.59,0,0,0-8.45,2.94c-5.89,3.91-1.19,11,0,15.94a5.56,5.56,0,0,1,0,2.15c0,.63-2.15.79-2.79.87A41.17,41.17,0,0,0,731,732c-6.85,2.7-3.43,10.35-2.63,15.93,0,.56.48,2.15,0,2.55s-2.39,0-3,0a48.32,48.32,0,0,0-9,0c-7.49,1.51-5.26,9.8-5.26,15.29a5.15,5.15,0,0,1-.39,2.47,7.74,7.74,0,0,1-2.63,0,53,53,0,0,0-8.93-1.67c-7.24,0-6.77,8-7.4,13.3,0,.8,0,2.55-.8,3.19s-1,0-1.75,0c-3-.72-5.66-2.31-8.69-3a6.76,6.76,0,0,0-7.4,2.23,23.74,23.74,0,0,0-3,8.53,26.73,26.73,0,0,1-1.12,3.34c0,.8,0,.8-1.27.56a45,45,0,0,1-8-4.14,7.39,7.39,0,0,0-8,0,17.06,17.06,0,0,0-4.55,7.33,32.07,32.07,0,0,1-1.75,3.82,5,5,0,0,1-.71.81H643a7.2,7.2,0,0,1-2.64-1.55l-3.87-3.1a8.86,8.86,0,0,0-7.75-2.33,12.28,12.28,0,0,0-5.82,6c-.77,1.16-1.47,2.32-2.24,3.41a21.09,21.09,0,0,1-1.56,1.71c-.69,0-1.7-1.09-2.17-1.55s-2.17-2.33-3.25-3.49a11.58,11.58,0,0,0-6.51-4.27,9.93,9.93,0,0,0-7.75,4.27c-1,1.16-3.73,5.42-5.35,5.35s-3.1-3.88-3.8-5a13.67,13.67,0,0,0-5.66-5.81,7.74,7.74,0,0,0-7.75,2c-1.24.93-2.41,2-3.65,3s-2.17,2-3.25,2.17-.39,0-.85-.78a15.61,15.61,0,0,1-1.94-3.79,19.68,19.68,0,0,0-4.34-7.06,7,7,0,0,0-7.75,0,79.15,79.15,0,0,1-7.76,4.42h-2.51a13.9,13.9,0,0,1-1.43-3.77c-1.52-5.18-2.95-12-9.88-10.68-3.19.64-6.06,2.31-9.08,3.19a6.86,6.86,0,0,1-1.92,0c-.79-.48-.87-2.63-.95-3.35-.8-5.65-.8-13.38-8.45-13.06a84.38,84.38,0,0,0-8.92,1.67,5.62,5.62,0,0,1-2.31,0c-.64-.55,0-2.63,0-3.34,0-5.42,1.52-13.31-6-14.26-3.11-.2-6.22-.2-9.32-.35h-2.39c-.32.35,0-2,0-2.6.87-5.34,3.66-13-3.35-15.22a38.41,38.41,0,0,0-8.6-1.19,6.33,6.33,0,0,1-3-.72v-2c1.17-5,6.1-12.19-.11-15.93a26.27,26.27,0,0,0-8-2.79,13.13,13.13,0,0,1-3.74-1.27c-.48,0-.4,0,0-1.28,1.51-4.94,8-10.67,3.9-15.93a17.94,17.94,0,0,0-7.32-4.38,33.16,33.16,0,0,1-3.83-1.76c-.72-.47-.95-.63-.95-1.11s1.43-2.31,2-3.11,2.07-2.47,3-3.82a8.62,8.62,0,0,0,2.16-8,14.14,14.14,0,0,0-6.38-5.81c-1.11-.72-2.39-1.44-3.5-2.31a13.78,13.78,0,0,1-1.52-1.44c0-.87,1.36-2.07,1.92-2.55l3.5-3.26a9.89,9.89,0,0,0,4.14-7.25,11.08,11.08,0,0,0-4.62-7c-1.19-1-5.33-3.67-5.26-5.34s4.23-3.34,5.34-4.06a13.68,13.68,0,0,0,5.82-5.82,8.78,8.78,0,0,0-2.47-8l-2.79-3.35c-.64-.8-2.15-2.23-2.23-3.34s0-.56,1-1a19.94,19.94,0,0,1,3.74-1.83,18.7,18.7,0,0,0,7.33-4.62c4.22-5.42-4.74-15.94-4.74-15.94v-1.33a9.92,9.92,0,0,1,3.55-1.36,24.89,24.89,0,0,0,7.87-3c5.67-4.15.55-11.24-.79-15.94a7.77,7.77,0,0,1,0-1.67c.48-.79,2.6-.87,3.31-.95a32.28,32.28,0,0,0,9.13-1.68c6.62-2.94,2.6-10.91,2.05-15.93v-1.83c0-.32,2.83,0,3.54,0a31.26,31.26,0,0,0,9.06,0c7-2,4.25-10.36,4.48-15.93,0-.56,0-1.68.4-1.92a14.38,14.38,0,0,1,3.15,0,35.15,35.15,0,0,0,9.05,1.36c7-.56,6.3-8.68,7-13.78a6.49,6.49,0,0,1,.63-2.71h3.56c3,.81,5.65,2.35,8.67,3,7.4,1.38,8.59-6,10-11.57a13.06,13.06,0,0,1,1.2-3.32c0-.48.47,0,1.43,0,2.86,1,5.33,3.16,8,4.37a7.19,7.19,0,0,0,7.95-.4,19.45,19.45,0,0,0,4.46-8.1A15.45,15.45,0,0,1,565.1,492c.48-.81.56-1,1-.89a8.4,8.4,0,0,1,3.1,1.95c1.36,1.13,2.63,2.26,4,3.23a8.41,8.41,0,0,0,7.95,2,14.46,14.46,0,0,0,5.89-6.64c.71-1.13,2.78-4.94,3.66-4.94s2.07,1.46,2.54,1.95,2.23,2.5,3.42,3.72a9.53,9.53,0,0,0,7,4,11.18,11.18,0,0,0,7.24-4.85c1-1.22,2.07-2.51,3.18-3.72a6.48,6.48,0,0,1,1.91-1.46c1.51,0,3.58,4.61,4.37,5.83a12.05,12.05,0,0,0,5.89,5.58,8.71,8.71,0,0,0,8-2.59c1.27-1,2.47-2.1,3.74-3.16s1.91-1.86,2.94-1.94.72.49,1.12,1.22a31.48,31.48,0,0,1,2,4,17.4,17.4,0,0,0,4.46,7.12,7.26,7.26,0,0,0,7.95,0,35.49,35.49,0,0,1,8-4.45c.64,0,.56,0,1,.49a16.89,16.89,0,0,1,1.43,4,23.83,23.83,0,0,0,2.94,8.1,6.54,6.54,0,0,0,7.48,2.18c3.1-.73,5.81-2.51,8.83-3.24.79,0,1.27-.4,1.67,0a9.53,9.53,0,0,1,.79,3.65,27.16,27.16,0,0,0,1.75,9.14,6.49,6.49,0,0,0,7,3.56c3.1,0,6-1.45,9-1.78a7,7,0,0,1,1.83,0c.71.57,0,3.08,0,3.89,0,5.74-1.2,13.35,6.36,14h9.39a4.07,4.07,0,0,1,1.9,0c.48.64,0,2.83,0,3.56-.95,5.66-3.26,13,4,15a61.92,61.92,0,0,0,9.23.57c.63,0,2.54,0,2.94.89s-.48,1.94-.56,2.26c-1.51,5.26-6,12.55,0,16.19a33.85,33.85,0,0,0,8,2.59,7,7,0,0,1,3,1.21c.4,0,.4,0,0,1.38-1.75,5-8.51,11.41-3.42,16.18a21.38,21.38,0,0,0,7.39,4.05,25.92,25.92,0,0,1,3.42,1.7s.8.56.88.81h0A9.08,9.08,0,0,1,758.2,612c-.87,1.21-1.83,2.26-2.62,3.48a8.85,8.85,0,0,0-2.23,8.09,12.94,12.94,0,0,0,6,5.75c1.27.89,5.25,2.75,5.48,4.2.56,3.57,6.05,3.08,5.49-.48a10,10,0,0,0-5.09-6.56l-4.05-2.59c-.72-.48-2.15-1.29-2.47-2.18s3-4.94,4-6.15a11.69,11.69,0,0,0,3.42-8.09c0-3-3.11-4.78-5.57-6l-4-1.7a10.23,10.23,0,0,1-3.66-2v-1.29a21.81,21.81,0,0,1,2.39-4.69,14.93,14.93,0,0,0,2.86-8.1c-.71-6.55-9.7-5.82-14.07-8.09-.8,0-.88,0-1-1a10.1,10.1,0,0,1,1.11-4.21,21.45,21.45,0,0,0,2.63-8.74c-.72-7-9.54-5.83-14.32-6.72a7.77,7.77,0,0,1-2.06-.56c-.56-.81,0-2.67,0-3.48a35.21,35.21,0,0,0,1.27-9.47c-.8-8.09-9.63-5.67-14.87-5.5a6.83,6.83,0,0,1-2.55,0c-.72-.57-.48-2.76-.48-3.56a41,41,0,0,0,0-9.39c-1.91-7.61-10.26-4.13-15.43-3.24-.63,0-2.38.57-2.94,0s-.63-2.35-.71-3a42.72,42.72,0,0,0-1.59-9.47c-3-7.12-10.82-2.51-15.91-.73-.64,0-2.15.89-2.78.48s-.88-1.78-1.12-2.34a64.2,64.2,0,0,0-2.7-8.58,6.28,6.28,0,0,0-6.52-4.13,24.75,24.75,0,0,0-8.51,4.21,9.45,9.45,0,0,1-3.42,1.62c-.64,0-.88-.41-1.36-1.21-1.59-2.59-2.46-5.59-4-8.1a6.75,6.75,0,0,0-6.52-4,15.8,15.8,0,0,0-8,4.69,20.45,20.45,0,0,1-3.66,2.83c-1,.49-.87.49-1.59,0a40.22,40.22,0,0,1-5-7.12,7.93,7.93,0,0,0-6.84-4.05,12.62,12.62,0,0,0-7.15,5.26c-1,1.14-3.5,4.86-4.94,4.7s-1.9-1.54-2.54-2.11l-3.18-4.28a8.87,8.87,0,0,0-7.32-3.57c-2.94.41-4.85,3.32-6.36,5.67s-1.51,2.59-2.39,3.8-1.35,2.43-2.3,2.51a11.87,11.87,0,0,1-2-1.21c-1.35-1-2.63-2.11-4-3.16a10.74,10.74,0,0,0-8-3.32c-2.95.49-4.62,3.4-5.81,5.91s-1.19,2.83-1.83,4.29-.95,2.75-1.91,3.32-4.45-1.7-5.72-2.43a13.76,13.76,0,0,0-8-2.91,7.21,7.21,0,0,0-5.48,5.58,54.55,54.55,0,0,1-2.55,8.9c0,.73,0,.73-.95.81a12,12,0,0,1-4.3-1.21,19.24,19.24,0,0,0-8.91-2.19,6.51,6.51,0,0,0-5.32,5.75c-.72,2.91-.56,6-1.12,9a6.55,6.55,0,0,1-.55,1.86c-.8.65-3,0-3.9,0-5.33-1.05-13.44-3.31-14.48,4.7V538.2c-.29.32-3.07,0-3.87,0-5.5,0-13.86-1.28-13.86,6.69a60.71,60.71,0,0,0,1.67,9.16c0,.72.48,2.15,0,2.63s-2.31.72-2.95.8c-5.33.79-14.1.71-13.14,8a55.71,55.71,0,0,0,3.11,9.32c0,.56.79,2,.47,2.55a7.27,7.27,0,0,1-2.62,1.2c-4.62,1.51-13.31,2.47-12.11,9.4a27.17,27.17,0,0,0,4.14,8.52,7.11,7.11,0,0,1,1.43,3.19c0,.63-.71,1.11-1.51,1.59-4.22,2.47-12.67,4.06-11.63,10.6a18.92,18.92,0,0,0,4.94,8,20.83,20.83,0,0,1,2.47,3.35c.48.87.48.87,0,1.67-3.35,3.59-11.71,5.58-10.84,11.87.4,3,3.19,5.26,5.34,7.17s4.62,3.35,4.46,4.78-1.83,2.23-2.47,2.87-2.39,2.07-3.5,3.18a8.93,8.93,0,0,0-3.51,7.25c.4,3.11,3.43,5.1,5.82,6.61s5.81,2.87,5.89,4.47-.87,1.75-1.27,2.23-2.15,2.7-3.19,4.06a10.15,10.15,0,0,0-3,8,9.33,9.33,0,0,0,5.9,5.57l4.06,1.75c1,.4,2.71,1,3.27,1.92s-1.91,4.86-2.71,6.21a13.4,13.4,0,0,0-2.55,8c1.2,6.61,10.12,5,14.42,8,.72.48.64,0,.64,1a12.09,12.09,0,0,1-1.36,4.38,18.19,18.19,0,0,0-2,8.84c1,6.69,10,5.34,14.74,6.29.8,0,1.51,0,1.67.88a6.54,6.54,0,0,1,0,3.51,28,28,0,0,0-1.11,9.24c1.11,8,10.43,4.86,15.93,5.1.72,0,1.67,0,2,.47s0,2.79,0,3.67a28,28,0,0,0,0,9.32c2.23,7.17,10.91,3.18,15.93,1.94h2.23a16.08,16.08,0,0,1,.88,4.11,28.93,28.93,0,0,0,1.67,9.08c3.27,6.85,11.23,1.84,15.93,0,.64,0,1.84-.55,2.31,0a11.46,11.46,0,0,1,1.36,2.79,47.32,47.32,0,0,0,2.79,8.69c3.82,6.61,10.59,1.59,15.29-1,2.31-1.35,3.19-2.07,4.54,0s2.31,5.5,3.91,8a6.69,6.69,0,0,0,6.69,3.58,18.71,18.71,0,0,0,8-5.18c1.52-1.19,3.35-3.42,4.86-1.91a62.39,62.39,0,0,1,5.1,7.09,7.35,7.35,0,0,0,7.09,3.59,14.73,14.73,0,0,0,7.17-5.66c1-1.28,3.27-4.54,4.78-3.9s4.3,4.38,6.13,6.21a8,8,0,0,0,8,2.95,12.33,12.33,0,0,0,6.06-6c.79-1.27,2.86-5.57,4.3-5.57s2,1,2.63,1.51l3.82,3.11a9.68,9.68,0,0,0,8,2.71,10,10,0,0,0,5.25-6.06l1.84-4.3a4.3,4.3,0,0,1,1.67-2.79c.8-.48,4.94,1.91,6.29,2.71a12.66,12.66,0,0,0,8,2.47c3.18-.56,4.62-3.59,5.42-6.37a27.42,27.42,0,0,1,2.46-8c0-.56,0-.56,1.2-.48a21,21,0,0,1,4.38,1.44,16.84,16.84,0,0,0,8.92,1.83,7,7,0,0,0,5-6.22c.56-2.94,0-6.05,1-8.84,0-.72,0-1.11.79-1.35a9.07,9.07,0,0,1,4.07.48,25.09,25.09,0,0,0,9.08,1,6.38,6.38,0,0,0,4.94-6.13c0-3.27-.48-6.46,0-9.64,0-.72,0-1.44.56-1.75s2.86,0,3.9,0a26.53,26.53,0,0,0,9.32,0,6.22,6.22,0,0,0,4-6.7,75.52,75.52,0,0,1-1-9.24v-2.15c-.71-.4,1.92-.79,2.79-.87,5.5-.72,13.95-1.12,12.43-9-.91-3.07-2-6.11-3.18-9.08a4.77,4.77,0,0,1,0-2c.47-.8,2.31-1.11,3.1-1.43,5-1.52,13.47-2.79,11.47-10.12a39.88,39.88,0,0,0-4.38-8c-1.27-2.47-1.51-2.94,1-4.3,4.3-2.31,13-4.3,11-11.07a20.81,20.81,0,0,0-5.1-7.49,12,12,0,0,1-2.23-3.19,1.84,1.84,0,0,1,.48-1.51c3.51-3.5,12.43-6,10.6-12.51a15.08,15.08,0,0,0-5.42-6.61c-1.12-1-4.46-3.26-4.22-4.62s1.67-2.07,2.31-2.71l3.26-3a10,10,0,0,0,3.91-7.25C770.85,628.45,765.35,629,765.43,632.6Z"/><path d="M689,563.21l31.86-23.9a28.83,28.83,0,0,1,40.31,6.06l35.37,47.79a4.78,4.78,0,0,1-4.86,7.41l-99.66-22.78a8,8,0,0,1-3-14.58Z"/><path d="M508.92,579.46l-36-17.68A28.91,28.91,0,0,0,434.36,575l-26.21,53.45a4.78,4.78,0,0,0,6.13,6.46l94.24-40.55a8,8,0,0,0,.4-14.9Z"/><path class="cls-21" d="M732.85,638.09c5.66,62.14-47.8,105.87-118.46,112.17s-131-27-136.62-89.14,47.48-112.33,117.82-118.54S727.28,576,732.85,638.09Z"/><path class="cls-22" d="M632.64,718.39a15.35,15.35,0,0,0-2.23-5.09c-1-1.52-2.55-2.71-3.59-4.23a12,12,0,0,1-1.91-6.85,36.73,36.73,0,0,0-.48-7.25,11.06,11.06,0,0,0-4.62-6.29,11.86,11.86,0,0,0-8-2.23h-3.43a12.06,12.06,0,0,0-8,3.66A11,11,0,0,0,597,697.2a44.19,44.19,0,0,0,.79,7.17,12,12,0,0,1-.55,7.09c-.88,1.68-2.07,3.11-2.79,4.78a16,16,0,0,0-1.36,5.42,19.07,19.07,0,0,0,4.94,13.46,44,44,0,0,0,6.22,6.06,38.59,38.59,0,0,0,3.66,2.55,13.21,13.21,0,0,0,3.11.63,29.37,29.37,0,0,0,4,0h0a27.77,27.77,0,0,0,3.91-1,9.54,9.54,0,0,0,2.94-1.2A22.23,22.23,0,0,0,625,739a37,37,0,0,0,5-7.09A18.73,18.73,0,0,0,632.64,718.39Z"/><circle class="cls-23" cx="546.44" cy="648.21" r="24.06" transform="translate(-206.46 258.46) rotate(-22.5)"/><circle cx="550.66" cy="654.34" r="17.13"/><circle class="cls-23" cx="662.91" cy="637.78" r="24.06"/><circle cx="659.88" cy="644.47" r="17.13"/><path class="cls-20" d="M689.44,687.09l-47.16-45.41a55.3,55.3,0,0,0-72.58,6.53l-37.84,53.14a37.52,37.52,0,0,0-6.53,33.13,152.73,152.73,0,0,0,88.27,15.94,149.79,149.79,0,0,0,88.66-36A37,37,0,0,0,689.44,687.09Zm-73.21,48.54h-2a9,9,0,0,1-2.08,0C593,737.39,560,710.94,574.88,711.74a32.28,32.28,0,0,0,34.5-28.92h0a8.79,8.79,0,0,0,.79,2.31,32.35,32.35,0,0,0,38.32,20C663.15,701.94,635.43,733.88,616.23,735.63Z"/><path d="M623.87,649c0-4.38-8.44-7.17-18.08-6.3s-17.13,5.1-16.73,9.4,9.48,18,19.12,17.13S624.27,653.31,623.87,649Z"/><path class="cls-20" d="M531.86,602A31.06,31.06,0,0,0,504,635.39a6,6,0,0,0,11.95-1A19,19,0,0,1,533,613.88,6,6,0,0,0,531.86,602Z"/><path class="cls-20" d="M670.4,601.69a18.87,18.87,0,0,1,20.76,16.78l0,.26a6,6,0,0,0,11.87-1.11,31.06,31.06,0,0,0-33.38-27.8,6,6,0,0,0,1.12,11.87Z"/><polygon class="cls-2" points="386.56 385.88 533.62 532.94 972.63 446.67 816.02 322.39 386.56 385.88"/><polygon class="cls-24" points="178.3 727.55 387.65 873.41 387.65 385.88 170.18 273.8 178.3 727.55"/><polygon class="cls-2" points="386.56 385.88 248.83 516.85 27.37 349.4 169.08 273.8 386.56 385.88"/></svg>