<svg xmlns="http://www.w3.org/2000/svg" viewBox="0 0 1000 1000"><defs><style>.cls-1{fill:#c69c6d;}.cls-2{fill:#ff7bac;}.cls-3{fill:#fff;}.cls-4{fill:#603813;}</style></defs><path d="M723.11,303.83l84.6-51.29a71.08,71.08,0,0,1,97.63,23.91L981.54,402A11.62,11.62,0,0,1,968,419.1L727.31,340.36C710.88,335,708.33,312.8,723.11,303.83Z"/><path d="M276.89,303.83l-84.6-51.29a71.08,71.08,0,0,0-97.63,23.91L18.46,402A11.62,11.62,0,0,0,32,419.1l240.68-78.74C289.12,335,291.67,312.8,276.89,303.83Z"/><path class="cls-1" d="M820.82,507.21c0,153.9-141.45,249.32-315.93,249.32S189,661.11,189,507.21,330.4,242,504.89,242,820.82,353.31,820.82,507.21Z"/><path class="cls-2" d="M556.71,683.22a39.89,39.89,0,0,0-4.46-13c-2.24-4-5.55-7.28-7.92-11.22-3.07-5.09-3.43-11.35-3.1-17.29s1.29-11.91.52-17.8c-1-7.28-5-11.66-10-16.49s-12.63-7.31-19.52-7.31H502.9c-6.89,0-14.48,2.45-19.52,7.31s-9.1,9.21-10.05,16.49c-.77,5.89.18,11.86.52,17.8s0,12.2-3.1,17.29c-2.37,3.94-5.68,7.19-7.92,11.22a39.89,39.89,0,0,0-4.46,13c-2,12.53,2.22,23.88,9.19,34.13a96.86,96.86,0,0,0,13.93,16.25,59.83,59.83,0,0,0,8.4,7c2.16,1.38,5,1.68,7.46,2.27a67.39,67.39,0,0,0,9.76,1.55v.08l.43,0,.43,0v-.08a67.39,67.39,0,0,0,9.76-1.55c2.49-.59,5.3-.89,7.46-2.27a59.83,59.83,0,0,0,8.4-7,96.86,96.86,0,0,0,13.93-16.25C554.49,707.1,558.73,695.75,556.71,683.22Z"/><circle class="cls-3" cx="360.54" cy="490.73" r="59.28"/><circle cx="369.44" cy="506.68" r="42.18"/><circle class="cls-3" cx="648.97" cy="490.73" r="59.28"/><circle cx="640.07" cy="506.68" r="42.18"/><path class="cls-4" d="M703.24,618,597.5,495.82c-47-45.1-132.92-45.1-179.91,0L311.84,618c-20.71,20.39-27.89,49-23.26,77,56.19,38.46,131,62.63,213.18,62.63,88.49,0,168.47-23.56,225.83-67.84C729.42,664.24,721.71,636.13,703.24,618ZM512.51,721.2c-1.6,0-3.26,0-5-.11s-3.37.11-5,.11c-47.64,0-122.84-72.31-86.26-67.83,22,2.71,77.69-1.44,91.1-63.46v-1.08c0,.18.09.35.13.54,0-.19.09-.36.13-.54v1.08c.43,2,.91,4,1.43,5.86,15.56,56.42,68.35,60.22,89.67,57.6C635.35,648.89,560.15,721.2,512.51,721.2Z"/><path d="M550.67,509.77c0-10.76-19.31-19.48-43.13-19.48s-43.13,8.72-43.13,19.48,19.31,46.33,43.13,46.33S550.67,520.52,550.67,509.77Z"/><path class="cls-4" d="M335.62,374c-41.23,0-75.78,34.55-75.78,75.78,0,18.87,29.34,18.9,29.34,0a46.73,46.73,0,0,1,46.44-46.44c18.87,0,18.9-29.34,0-29.34Z"/><path class="cls-4" d="M675.38,403.33a46.73,46.73,0,0,1,46.44,46.44c0,18.87,29.34,18.9,29.34,0,0-41.22-34.55-75.78-75.78-75.78-18.87,0-18.9,29.34,0,29.34Z"/></svg>