<svg xmlns="http://www.w3.org/2000/svg" xmlns:xlink="http://www.w3.org/1999/xlink" viewBox="0 0 120 120"><defs><style>.cls-1{fill:none;}.cls-2{fill:#cc986d;}.cls-3{fill:#d59861;opacity:0.88;}.cls-4{fill:#bf7c4f;}.cls-5{fill:#93542a;}.cls-6{fill:#3dc5ee;}.cls-7{fill:url(#grad3);}.cls-8{fill:url(#grad2);}.cls-9{clip-path:url(#clip-path);}.cls-10{fill:#3a2416;}.cls-11{fill:url(#grad4);}.cls-12{clip-path:url(#clip-path-2);}.cls-13{fill:#f7ea2f;}.cls-14{fill:url(#grad4-2);}.cls-15{clip-path:url(#clip-path-3);}.cls-16{opacity:0.5;isolation:isolate;fill:url(#grad3);}.cls-17{fill:#bc7846;}.cls-18{fill:#c48857;}.cls-19{fill:#f9f8f2;}.cls-20{fill:#603813;}.cls-21{fill:#c69c6d;}.cls-22{fill:#ff7bac;}.cls-23{fill:#fff;}</style><linearGradient id="grad3" x1="1879.9" y1="1145.95" x2="1879.9" y2="1181.08" gradientTransform="matrix(0.95, 0.32, 0.32, -0.95, -2092.58, 532.03)" gradientUnits="userSpaceOnUse"><stop offset="0.03" stop-color="#28aae1"/><stop offset="1" stop-color="#2a3b8e"/></linearGradient><linearGradient id="grad2" x1="1870.09" y1="1146" x2="1870.09" y2="1180.97" gradientTransform="matrix(0.95, 0.32, 0.32, -0.95, -2092.58, 532.03)" gradientUnits="userSpaceOnUse"><stop offset="0" stop-color="#ea2b7b"/><stop offset="1" stop-color="#2a3b8e"/></linearGradient><clipPath id="clip-path"><path class="cls-1" d="M59,39.59c-1,4.63,6.23,6.84,5.07,10.42-1.39,4.33-8.55,3.57-13.35,2.54A17.46,17.46,0,1,1,58,18.4c6.71,1.44,15.52,6.69,13.66,12.11C70.85,33,59.57,36.86,59,39.59Z"/></clipPath><linearGradient id="grad4" x1="1867.33" y1="1163.48" x2="1867.33" y2="1171.23" gradientTransform="matrix(0.02, 1, 1, -0.02, -1145.97, -1817.58)" gradientUnits="userSpaceOnUse"><stop offset="0" stop-color="#ea2b7b"/><stop offset="1" stop-color="#8f288c"/></linearGradient><clipPath id="clip-path-2"><ellipse class="cls-1" cx="51.84" cy="30.34" rx="3.88" ry="2.34" transform="translate(5.74 68.85) rotate(-70.21)"/></clipPath><linearGradient id="grad4-2" x1="1802.07" y1="1266.86" x2="1802.07" y2="1274.61" gradientTransform="matrix(0.01, 0.85, 0.9, -0.01, -1120.75, -1492.22)" xlink:href="#grad4"/><clipPath id="clip-path-3"><ellipse class="cls-1" cx="42.07" cy="26.82" rx="3.5" ry="1.59" transform="translate(2.23 56.87) rotate(-69.54)"/></clipPath><linearGradient id="grad3" x1="2105.8" y1="1100.88" x2="2105.8" y2="1103.46" gradientTransform="matrix(0.98, 0.21, 0.21, -0.98, -2233.21, 657.13)" gradientUnits="userSpaceOnUse"><stop offset="0" stop-color="#fff" stop-opacity="0"/><stop offset="1" stop-color="#fff"/></linearGradient></defs><polygon class="cls-2" points="70.17 26.71 99.67 38.58 114.33 25.61 84.24 14 70.17 26.71"/><polygon class="cls-3" points="2.87 18.07 18.46 32.48 70.17 26.71 56.44 14.34 2.87 18.07"/><polygon class="cls-4" points="99.67 38.58 70.17 43.17 70.17 26.71 99.67 38.58"/><polygon class="cls-5" points="18.46 32.48 45.76 46.55 70.17 43.16 70.17 26.71 18.46 32.48"/><path class="cls-6" d="M62.21,19.56a48.85,48.85,0,0,1,20.7,13.72c3.12,3.22,3.58,4.91,2.93,5.93-1.18,1.88-10.38-1.92-10.65-1.2s7.84,5.05,6.52,8-11,0-11.36,1.18c-.45,1.32,6,5.29,5.14,7.33-.59,1.4-8.2,2.59-23.18-1.29-19.39-5-9.83-19.16-6.65-25.65C48,22.93,48.45,15,62.21,19.56Z"/><path class="cls-7" d="M61.29,19.24a45.27,45.27,0,0,1,18.38,11.4c4.82,4.84,5.56,6.66,5.07,7.78-.89,2.08-11.1-3-11.68-1.76s8.19,5.58,6.86,8.55-10.93.07-11.6,1.11c-.88,1.36,5.65,5.64,5,7.24S64.65,56,52.65,53.21C32.58,48.54,41.28,33.9,44.5,27.34,46.8,22.65,47.3,15,61.29,19.24Z"/><path class="cls-8" d="M59,39.59c-1,4.63,6.23,6.84,5.07,10.42-1.39,4.33-8.55,3.57-13.35,2.54A17.46,17.46,0,1,1,58,18.4c6.71,1.44,15.52,6.69,13.66,12.11C70.85,33,59.57,36.86,59,39.59Z"/><g class="cls-9"><ellipse class="cls-10" cx="48.59" cy="30.54" rx="8.56" ry="11.79" transform="translate(3.99 66.66) rotate(-71.15)"/></g><ellipse class="cls-11" cx="51.84" cy="30.34" rx="3.88" ry="2.34" transform="translate(5.74 68.85) rotate(-70.21)"/><g class="cls-12"><ellipse class="cls-13" cx="53.18" cy="30.8" rx="3.88" ry="2.34" transform="translate(6.2 70.42) rotate(-70.21)"/></g><ellipse class="cls-14" cx="42.07" cy="26.82" rx="3.5" ry="1.59" transform="translate(2.23 56.87) rotate(-69.54)"/><g class="cls-15"><ellipse class="cls-13" cx="43.42" cy="27.1" rx="3.5" ry="1.59" transform="translate(2.86 58.31) rotate(-69.54)"/></g><path class="cls-16" d="M62.88,22.4c-.15.7-2.7.35-6-.36s-6.52-1.23-6.37-1.93,3.59-1.29,6.91-.58S63,21.71,62.88,22.4Z"/><path class="cls-6" d="M81.21,52c-.31.88-1.57,1.25-2.81.81s-3.93-2.18-3.62-3.07,3.5-.57,4.74-.14S81.52,51.15,81.21,52Z"/><path class="cls-6" d="M86,42.41c-.13.45-.76.66-1.39.47s-2-1-1.87-1.46,1.74-.36,2.37-.17S86.15,42,86,42.41Z"/><polygon class="cls-17" points="45.75 46.55 45.75 107.75 99.66 98.43 99.66 38.59 45.75 46.55"/><polygon class="cls-18" points="19.48 89.44 45.76 107.75 45.76 46.55 18.46 32.48 19.48 89.44"/><polygon class="cls-2" points="45.76 46.55 28.47 62.99 0.67 41.97 18.46 32.48 45.76 46.55"/><path class="cls-19" d="M93.67,77.49c0,.52-1.21,1.11-1.2,1.63s1.27,1.07,1.24,1.59-1.37.91-1.44,1.42,1.09,1.26,1,1.77-1.49.68-1.64,1.17.87,1.42.68,1.9-1.58.44-1.81.9.64,1.54.38,2-1.63.18-1.93.61.4,1.62.06,2-1.63-.08-2,.3.14,1.66-.25,2-1.6-.33-2,0-.12,1.67-.56,2-1.53-.58-2-.34-.38,1.63-.86,1.83-1.42-.81-1.92-.64-.63,1.54-1.14,1.67-1.27-1-1.79-.93-.86,1.42-1.38,1.47-1.11-1.21-1.63-1.2-1.08,1.27-1.59,1.24-.91-1.37-1.42-1.44-1.27,1.09-1.77,1-.68-1.49-1.17-1.64-1.42.87-1.91.68-.43-1.58-.9-1.81-1.53.65-2,.38-.18-1.63-.61-1.93-1.62.4-2,.06.08-1.63-.3-2-1.66.14-2-.26.33-1.6,0-2-1.66-.12-1.94-.56.58-1.53.33-2-1.62-.38-1.82-.86.8-1.42.64-1.92-1.54-.63-1.67-1.13,1-1.28.93-1.8-1.42-.86-1.47-1.38S54,80.07,54,79.56s-1.27-1.08-1.24-1.6,1.37-.91,1.44-1.42-1.09-1.26-1-1.77,1.49-.68,1.64-1.17-.88-1.42-.68-1.9,1.57-.44,1.81-.9-.65-1.54-.38-2,1.63-.18,1.93-.61-.4-1.62-.07-2,1.64.08,2-.29-.14-1.67.25-2,1.61.33,2,0,.12-1.67.57-1.94,1.53.57,2,.33.38-1.63.86-1.83,1.42.81,1.92.64.62-1.54,1.13-1.67,1.28,1,1.79.93.87-1.42,1.39-1.47,1.11,1.21,1.62,1.2,1.08-1.27,1.6-1.24.9,1.37,1.42,1.44,1.26-1.09,1.77-1S78.47,60.81,79,61s1.42-.87,1.9-.68.44,1.58.9,1.81,1.54-.65,2-.38.18,1.63.6,1.93,1.62-.4,2-.06-.07,1.63.3,2,1.66-.14,2,.26-.33,1.6,0,2,1.67.12,1.94.56-.57,1.53-.33,2,1.62.38,1.83.86-.81,1.42-.64,1.92,1.54.63,1.67,1.13-1,1.28-.94,1.8S93.62,77,93.67,77.49Z"/><path class="cls-20" d="M93.32,77.52c0,.19-.47.52-.61.66a1.42,1.42,0,0,0-.59.87,1.2,1.2,0,0,0,.53.93l.43.38c.07.07.29.23.28.34,0,0,0,0,0,0a.53.53,0,0,1-.13.13,3.88,3.88,0,0,1-.47.32,1.93,1.93,0,0,0-.77.73,1,1,0,0,0,.24,1c.11.16.24.3.36.45s.28.28.31.44-.35.29-.51.37a2.58,2.58,0,0,0-1,.56c-.56.65.29,1.4.5,2,0,.09.06.12,0,.16s-.32.15-.43.18a4.45,4.45,0,0,0-1.06.37c-.74.49-.15,1.38,0,2a.71.71,0,0,1,0,.27c0,.08-.27.1-.35.11A5.12,5.12,0,0,0,89,90c-.86.34-.43,1.3-.33,2,0,.07.06.27,0,.32s-.3,0-.38,0a6.09,6.09,0,0,0-1.13,0c-.94.19-.66,1.23-.66,1.92,0,.08,0,.25-.05.31a1,1,0,0,1-.33,0A6.65,6.65,0,0,0,85,94.34c-.91,0-.85,1-.93,1.67,0,.1,0,.32-.1.4s-.12,0-.22,0c-.37-.09-.71-.29-1.09-.37a.85.85,0,0,0-.93.28,3,3,0,0,0-.37,1.07,3.45,3.45,0,0,1-.14.42c0,.1,0,.1-.16.07a5.59,5.59,0,0,1-1-.52.93.93,0,0,0-1,0,2.14,2.14,0,0,0-.57.92,4.16,4.16,0,0,1-.22.48,1.46,1.46,0,0,1-.09.13s0,0-.06,0a.9.9,0,0,1-.34-.2l-.5-.4a1.14,1.14,0,0,0-1-.3,1.58,1.58,0,0,0-.75.78c-.1.15-.19.3-.29.44a2.65,2.65,0,0,1-.2.22c-.09,0-.22-.14-.28-.2s-.28-.3-.42-.45a1.49,1.49,0,0,0-.84-.55,1.28,1.28,0,0,0-1,.55c-.13.15-.48.7-.69.69s-.4-.5-.49-.64a1.76,1.76,0,0,0-.73-.75,1,1,0,0,0-1,.26c-.16.12-.31.26-.47.39s-.28.26-.42.28-.05,0-.11-.1a2.06,2.06,0,0,1-.25-.49,2.52,2.52,0,0,0-.56-.91.9.9,0,0,0-1,0,10.35,10.35,0,0,1-1,.57c-.1,0-.09,0-.15,0a1,1,0,0,1-.18-.48c-.19-.65-.37-1.51-1.24-1.34-.4.08-.76.29-1.14.4a.86.86,0,0,1-.24,0c-.1-.06-.11-.33-.12-.42-.1-.71-.1-1.68-1.06-1.64a10.52,10.52,0,0,0-1.12.21.72.72,0,0,1-.29,0c-.08-.07,0-.33,0-.42,0-.68.19-1.67-.75-1.79a9.15,9.15,0,0,0-1.17,0c-.08,0-.26,0-.3,0s0-.29,0-.37c.11-.67.46-1.63-.42-1.91a4.85,4.85,0,0,0-1.08-.15.89.89,0,0,1-.39-.09s0-.16,0-.25c.16-.63.78-1.53,0-2a3.3,3.3,0,0,0-1-.35,1.63,1.63,0,0,1-.47-.16c-.06,0-.05,0,0-.16.19-.62,1-1.34.49-2a2.27,2.27,0,0,0-.92-.55,4.16,4.16,0,0,1-.48-.22c-.09-.06-.12-.08-.12-.14s.18-.29.25-.39.26-.31.38-.48a1.08,1.08,0,0,0,.27-1,1.77,1.77,0,0,0-.8-.73c-.14-.09-.3-.18-.44-.29a1.77,1.77,0,0,1-.19-.18c0-.11.17-.26.24-.32l.44-.41a1.24,1.24,0,0,0,.52-.91,1.39,1.39,0,0,0-.58-.88c-.15-.13-.67-.46-.66-.67s.53-.42.67-.51a1.71,1.71,0,0,0,.73-.73,1.1,1.1,0,0,0-.31-1l-.35-.42c-.08-.1-.27-.28-.28-.42s0-.07.12-.13a2.56,2.56,0,0,1,.47-.23,2.33,2.33,0,0,0,.92-.58c.53-.68-.38-1.38-.55-2,0-.09,0-.07,0-.13a1.23,1.23,0,0,1,.45-.17,3.17,3.17,0,0,0,1-.38c.72-.52.07-1.41-.1-2a1,1,0,0,1,0-.21c.06-.1.33-.11.42-.12a4.16,4.16,0,0,0,1.16-.21c.84-.37.33-1.37.26-2,0-.06,0-.19,0-.23s.36,0,.45,0a4,4,0,0,0,1.15,0c.89-.25.54-1.3.57-2,0-.07,0-.21.05-.24s.32,0,.4,0a4.51,4.51,0,0,0,1.15.17c.89-.07.8-1.09.89-1.73a.81.81,0,0,1,.08-.34c.05,0,.19,0,.28,0,.37.1.71.29,1.09.37.93.17,1.08-.74,1.26-1.43a1.56,1.56,0,0,1,.15-.41c0-.06.06,0,.18,0,.36.13.67.39,1,.54a.92.92,0,0,0,1-.05,2.39,2.39,0,0,0,.56-1,1.88,1.88,0,0,1,.22-.45c.06-.1.07-.12.13-.11a1.06,1.06,0,0,1,.39.24c.17.14.33.28.5.4a1.07,1.07,0,0,0,1,.25,1.79,1.79,0,0,0,.74-.82c.09-.14.35-.61.46-.61s.26.18.32.24.28.31.43.46a1.2,1.2,0,0,0,.88.5,1.41,1.41,0,0,0,.91-.6c.13-.15.26-.31.4-.46a.83.83,0,0,1,.24-.18c.19,0,.45.57.55.72a1.5,1.5,0,0,0,.74.69,1.11,1.11,0,0,0,1-.32c.16-.12.31-.26.47-.39s.24-.23.37-.24.09.06.14.15a3.89,3.89,0,0,1,.25.5,2.14,2.14,0,0,0,.56.88.93.93,0,0,0,1,0,4.46,4.46,0,0,1,1-.55c.08,0,.07,0,.12.06a2.05,2.05,0,0,1,.18.49,2.89,2.89,0,0,0,.37,1,.83.83,0,0,0,.94.27c.39-.09.73-.31,1.11-.4.1,0,.16-.05.21,0a1.14,1.14,0,0,1,.1.45,3.29,3.29,0,0,0,.22,1.13.82.82,0,0,0,.88.44c.39,0,.75-.18,1.13-.22a.88.88,0,0,1,.23,0c.09.07,0,.38,0,.48,0,.71-.15,1.65.8,1.73.4,0,.79,0,1.18,0a.55.55,0,0,1,.24,0c.06.08,0,.35,0,.44-.12.7-.41,1.61.5,1.86A7.84,7.84,0,0,0,90,68.5c.08,0,.32,0,.37.11s-.06.24-.07.28c-.19.65-.76,1.55,0,2a4.25,4.25,0,0,0,1,.32.89.89,0,0,1,.38.15c.05,0,.05,0,0,.17-.22.62-1.07,1.41-.43,2a2.7,2.7,0,0,0,.93.5,3.42,3.42,0,0,1,.43.21s.1.07.11.1,0,0,0,0a1.13,1.13,0,0,1-.29.43c-.11.15-.23.28-.33.43a1.08,1.08,0,0,0-.28,1,1.61,1.61,0,0,0,.75.71c.16.11.66.34.69.52.07.44.76.38.69-.06a1.24,1.24,0,0,0-.64-.81l-.51-.32c-.09-.06-.27-.16-.31-.27s.38-.61.5-.76a1.43,1.43,0,0,0,.43-1c0-.37-.39-.59-.7-.74l-.5-.21a1.29,1.29,0,0,1-.46-.25c0-.06,0,0,0-.16a2.66,2.66,0,0,1,.3-.58,1.82,1.82,0,0,0,.36-1c-.09-.81-1.22-.72-1.77-1-.1,0-.11,0-.12-.12a1.23,1.23,0,0,1,.14-.52A2.62,2.62,0,0,0,91,68.55c-.09-.86-1.2-.72-1.8-.83a1.05,1.05,0,0,1-.26-.07c-.07-.1,0-.33,0-.43a4.23,4.23,0,0,0,.16-1.17c-.1-1-1.21-.7-1.87-.68a.83.83,0,0,1-.32,0c-.09-.07-.06-.34-.06-.44a5,5,0,0,0,0-1.16c-.24-.94-1.29-.51-1.94-.4-.08,0-.3.07-.37,0s-.08-.29-.09-.37a5.12,5.12,0,0,0-.2-1.17c-.38-.88-1.36-.31-2-.09-.08,0-.27.11-.35.06s-.11-.22-.14-.29a7.7,7.7,0,0,0-.34-1.06.79.79,0,0,0-.82-.51,3.13,3.13,0,0,0-1.07.52,1.2,1.2,0,0,1-.43.2c-.08,0-.11-.05-.17-.15-.2-.32-.31-.69-.5-1a.85.85,0,0,0-.82-.5,2,2,0,0,0-1,.58,2.66,2.66,0,0,1-.46.35c-.12.06-.11.06-.2,0a5,5,0,0,1-.63-.88,1,1,0,0,0-.86-.5,1.58,1.58,0,0,0-.9.65c-.13.14-.44.6-.62.58s-.24-.19-.32-.26L72.22,59a1.12,1.12,0,0,0-.92-.44c-.37.05-.61.41-.8.7s-.19.32-.3.47-.17.3-.29.31a1.48,1.48,0,0,1-.25-.15c-.17-.12-.33-.26-.5-.39a1.36,1.36,0,0,0-1-.41c-.37.06-.58.42-.73.73s-.15.35-.23.53-.12.34-.24.41-.56-.21-.72-.3a1.75,1.75,0,0,0-1-.36.9.9,0,0,0-.69.69,6.64,6.64,0,0,1-.32,1.1c0,.09,0,.09-.12.1a1.51,1.51,0,0,1-.54-.15,2.46,2.46,0,0,0-1.12-.27.81.81,0,0,0-.67.71c-.09.36-.07.74-.14,1.11a.79.79,0,0,1-.07.23c-.1.08-.38,0-.49,0-.67-.13-1.69-.41-1.82.58,0,.4,0,.8,0,1.2,0,.08,0,.23,0,.27s-.35,0-.45,0c-.69,0-1.74-.16-1.74.84a7.73,7.73,0,0,0,.21,1.15c0,.09.06.27,0,.33s-.29.09-.37.1c-.67.1-1.77.09-1.65,1a7,7,0,0,0,.39,1.17c0,.07.1.25.06.32a.92.92,0,0,1-.33.15c-.58.19-1.67.31-1.52,1.18a3.43,3.43,0,0,0,.52,1.07.9.9,0,0,1,.18.4c0,.08-.09.14-.19.2-.53.31-1.59.51-1.46,1.33a2.37,2.37,0,0,0,.62,1,2.53,2.53,0,0,1,.31.42c.06.11.06.11,0,.21-.42.45-1.47.7-1.36,1.49.05.38.4.66.67.9s.58.42.56.6-.23.28-.31.36-.3.26-.44.4a1.12,1.12,0,0,0-.44.91c.05.39.43.64.73.83s.73.36.74.56-.11.22-.16.28-.27.34-.4.51a1.27,1.27,0,0,0-.37,1,1.17,1.17,0,0,0,.74.7l.51.22c.12.05.34.12.41.24s-.24.61-.34.78a1.68,1.68,0,0,0-.32,1c.15.83,1.27.63,1.81,1,.09.06.08,0,.08.13a1.53,1.53,0,0,1-.17.55,2.28,2.28,0,0,0-.25,1.11c.12.84,1.26.67,1.85.79.1,0,.19,0,.21.11a.82.82,0,0,1,0,.44,3.55,3.55,0,0,0-.14,1.16c.14,1,1.31.61,2,.64.09,0,.21,0,.25.06s0,.35,0,.46a3.52,3.52,0,0,0,0,1.17c.28.9,1.37.4,2,.32.08,0,.23,0,.28,0s.1.33.11.44a3.65,3.65,0,0,0,.21,1.14c.41.86,1.41.23,2,0,.08,0,.23-.07.29,0s.14.26.17.35a6,6,0,0,0,.35,1.09c.48.83,1.33.2,1.92-.13.29-.17.4-.26.57,0s.29.69.49,1a.84.84,0,0,0,.84.45,2.35,2.35,0,0,0,1-.65c.19-.15.42-.43.61-.24a8,8,0,0,1,.64.89.92.92,0,0,0,.89.45,1.84,1.84,0,0,0,.9-.71c.13-.16.41-.57.6-.49s.54.55.77.78a1,1,0,0,0,1,.37,1.54,1.54,0,0,0,.76-.75c.1-.16.36-.7.54-.7s.25.13.33.19l.48.39a1.21,1.21,0,0,0,1,.34,1.25,1.25,0,0,0,.66-.76l.23-.54c0-.1.11-.29.21-.35s.62.24.79.34a1.59,1.59,0,0,0,1,.31c.4-.07.58-.45.68-.8a3.46,3.46,0,0,1,.31-1c0-.07,0-.07.15-.06a2.72,2.72,0,0,1,.55.18,2.1,2.1,0,0,0,1.12.23.88.88,0,0,0,.63-.78c.07-.37,0-.76.13-1.11,0-.09,0-.14.1-.17a1.14,1.14,0,0,1,.51.06,3.15,3.15,0,0,0,1.14.12.8.8,0,0,0,.62-.77c0-.41-.06-.81,0-1.21,0-.09,0-.18.07-.22s.36,0,.49,0a3.28,3.28,0,0,0,1.17,0,.78.78,0,0,0,.5-.84,11.3,11.3,0,0,0-.22-1.16c0-.08,0-.22,0-.27s.33-.1.44-.11c.69-.09,1.75-.14,1.56-1.13a11.86,11.86,0,0,0-.4-1.14.61.61,0,0,1,0-.25c.06-.1.29-.14.39-.18.63-.19,1.69-.35,1.44-1.27a5,5,0,0,0-.55-1c-.16-.31-.19-.37.12-.54.54-.29,1.63-.54,1.38-1.39a2.62,2.62,0,0,0-.64-.94,1.52,1.52,0,0,1-.28-.4c0-.1,0-.1.06-.19.44-.44,1.56-.75,1.33-1.57a1.89,1.89,0,0,0-.68-.83c-.14-.12-.56-.41-.53-.58s.21-.26.29-.34l.41-.38a1.25,1.25,0,0,0,.49-.91C94,77,93.31,77.07,93.32,77.52Z"/><path d="M83.73,68.81l4-3a3.62,3.62,0,0,1,5.06.76l4.44,6a.6.6,0,0,1-.61.93L84.11,70.64A1,1,0,0,1,83.73,68.81Z"/><path d="M61.12,70.85,56.6,68.63a3.63,3.63,0,0,0-4.84,1.66L48.47,77a.6.6,0,0,0,.77.81l11.83-5.09A1,1,0,0,0,61.12,70.85Z"/><path class="cls-21" d="M89.23,78.21c.71,7.8-6,13.29-14.87,14.08S57.92,88.9,57.21,81.1,63.17,67,72,66.22,88.53,70.42,89.23,78.21Z"/><path class="cls-22" d="M76.65,88.34a1.92,1.92,0,0,0-.28-.64c-.13-.19-.32-.34-.45-.53a1.51,1.51,0,0,1-.24-.86,4.59,4.59,0,0,0-.06-.91,1.39,1.39,0,0,0-.58-.79,1.49,1.49,0,0,0-1-.28l-.22,0h0l-.21,0a1.51,1.51,0,0,0-1,.46,1.37,1.37,0,0,0-.43.89,5.51,5.51,0,0,0,.1.9,1.51,1.51,0,0,1-.07.89c-.11.21-.26.39-.35.6a2,2,0,0,0-.17.68,2.39,2.39,0,0,0,.62,1.69,5.6,5.6,0,0,0,.78.76,4.73,4.73,0,0,0,.46.32,1.69,1.69,0,0,0,.39.08,4.07,4.07,0,0,0,.5,0h0a3.51,3.51,0,0,0,.49-.13,1.2,1.2,0,0,0,.37-.15,2.87,2.87,0,0,0,.39-.39,4.62,4.62,0,0,0,.63-.89A2.35,2.35,0,0,0,76.65,88.34Z"/><circle class="cls-23" cx="65.83" cy="79.48" r="3.02"/><circle cx="66.36" cy="80.25" r="2.15"/><circle class="cls-23" cx="80.45" cy="78.17" r="3.02"/><circle cx="80.07" cy="79.01" r="2.15"/><path class="cls-20" d="M83.78,84.36l-5.92-5.7a6.94,6.94,0,0,0-9.11.82L64,86.15a4.71,4.71,0,0,0-.82,4.16,19.18,19.18,0,0,0,11.08,2,18.8,18.8,0,0,0,11.13-4.52A4.65,4.65,0,0,0,83.78,84.36Zm-9.19,6.11h-.25a1.15,1.15,0,0,1-.26,0c-2.41.22-6.55-3.1-4.68-3a4.05,4.05,0,0,0,4.33-3.63v0c0,.1.07.19.1.29a4.06,4.06,0,0,0,4.81,2.51C80.48,86.24,77,90.25,74.59,90.47Z"/><path d="M75.55,79.58c0-.55-1.06-.9-2.27-.79s-2.15.64-2.1,1.18,1.19,2.26,2.4,2.15S75.6,80.12,75.55,79.58Z"/><path class="cls-20" d="M64,73.68a3.9,3.9,0,0,0-3.5,4.19A.75.75,0,0,0,62,77.74a2.38,2.38,0,0,1,2.14-2.57A.75.75,0,0,0,64,73.68Z"/><path class="cls-20" d="M81.39,73.62A2.37,2.37,0,0,1,84,75.76a.75.75,0,0,0,1.49-.14,3.9,3.9,0,0,0-4.19-3.49.75.75,0,0,0,.14,1.49Z"/><polygon class="cls-2" points="45.76 46.55 64.22 65.01 119.33 54.18 99.67 38.58 45.76 46.55"/></svg>