<svg id="Layer_1" data-name="Layer 1" xmlns="http://www.w3.org/2000/svg" xmlns:xlink="http://www.w3.org/1999/xlink" viewBox="0 0 1280 980"><defs><style>.cls-1{fill:url(#linear-gradient);}.cls-2{fill:url(#New_Gradient_Swatch_4);}.cls-3{fill:url(#New_Gradient_Swatch_4-2);}.cls-4{fill:#3dc5ee;}.cls-5{fill:url(#linear-gradient-2);}.cls-6{clip-path:url(#clip-path);}.cls-7{fill:#3a2416;}.cls-8{clip-path:url(#clip-path-2);}.cls-9{fill:#f7ea2f;}.cls-10{clip-path:url(#clip-path-3);}.cls-11{fill:#4a3f5a;}.cls-12{opacity:0.5;fill:url(#linear-gradient-4);}.cls-13{fill:#2c0e59;}.cls-14{fill:#1f1f5d;}.cls-15{fill:#133062;}.cls-16{fill:#064166;}</style><linearGradient id="linear-gradient" x1="2609.86" y1="486.22" x2="2609.86" y2="151.08" gradientTransform="translate(-2019.9)" gradientUnits="userSpaceOnUse"><stop offset="0" stop-color="#ea2b7b"/><stop offset="1" stop-color="#2a3b8e"/></linearGradient><linearGradient id="New_Gradient_Swatch_4" x1="2583.97" y1="317.18" x2="2583.97" y2="242.91" gradientTransform="translate(801.89 -2308.15) rotate(89.06)" gradientUnits="userSpaceOnUse"><stop offset="0" stop-color="#ea2b7b"/><stop offset="1" stop-color="#8f288c"/></linearGradient><linearGradient id="New_Gradient_Swatch_4-2" x1="2485.68" y1="318.23" x2="2485.68" y2="243.96" gradientTransform="matrix(0.01, 0.85, -0.9, 0.01, 681.9, -1832.51)" xlink:href="#New_Gradient_Swatch_4"/><linearGradient id="linear-gradient-2" x1="2703.88" y1="486.7" x2="2703.88" y2="150" gradientTransform="translate(-2019.9)" gradientUnits="userSpaceOnUse"><stop offset="0.03" stop-color="#28aae1"/><stop offset="1" stop-color="#2a3b8e"/></linearGradient><clipPath id="clip-path"><path class="cls-1" d="M657.54,341.82c5.34,45.07,77.64,42.73,78.27,78.83.76,43.59-66.5,58.87-113.25,64.4-91.87,10.86-175.15-54.74-186-146.53s54.78-175,146.64-185.86c65.31-7.72,161.38,12.6,161.38,67.55C744.56,244.86,654.4,315.29,657.54,341.82Z"/></clipPath><clipPath id="clip-path-2"><ellipse class="cls-2" cx="564.07" cy="280.05" rx="37.14" ry="22.4" transform="translate(274.85 839.47) rotate(-89.06)"/></clipPath><clipPath id="clip-path-3"><ellipse class="cls-3" cx="464.63" cy="278.44" rx="33.56" ry="15.25" transform="translate(173.21 735.05) rotate(-88.39)"/></clipPath><linearGradient id="linear-gradient-4" x1="2740.47" y1="294.53" x2="2740.47" y2="269.73" gradientTransform="translate(-2175.35 219.42) rotate(-6.75)" gradientUnits="userSpaceOnUse"><stop offset="0" stop-color="#fff" stop-opacity="0"/><stop offset="1" stop-color="#fff"/></linearGradient></defs><path class="cls-4" d="M624.72,150.18c118-1,198.21,44.06,230.26,60.4,38.22,19.49,47.62,33.4,44.93,44.71C895,276,799.81,270,799.59,277.34s86.75,21.58,83.86,52.36-99.34,34.2-99.36,45.88c0,13.42,70.84,29.36,69.32,50.55-1,14.57-66.3,48.87-214.21,60.06-191.42,14.47-148.48-143.34-139.67-212C505.85,224.88,485.82,151.39,624.72,150.18Z"/><path class="cls-5" d="M615.41,150.18c86.22-2.66,159.09,25.25,202,46.46,58.73,29,71,43.15,70.11,54.86-1.7,21.59-110,7.28-111.41,20.18s91.56,25.25,88.65,56.32S765.83,362.49,763,373.94c-3.75,15.06,68.69,33.67,67.65,50.22s-71,49-188.44,60.86c-196.48,19.78-162.92-140-154-209.42C494.55,225.88,475.25,154.5,615.41,150.18Z"/><path class="cls-1" d="M657.54,341.82c5.34,45.07,77.64,42.73,78.27,78.83.76,43.59-66.5,58.87-113.25,64.4-91.87,10.86-175.15-54.74-186-146.53s54.78-175,146.64-185.86c65.31-7.72,161.38,12.6,161.38,67.55C744.56,244.86,654.4,315.29,657.54,341.82Z"/><g class="cls-6"><ellipse class="cls-7" cx="535.19" cy="291.98" rx="113.02" ry="81.99"/></g><ellipse class="cls-2" cx="564.07" cy="280.05" rx="37.14" ry="22.4" transform="translate(274.85 839.47) rotate(-89.06)"/><g class="cls-8"><ellipse class="cls-9" cx="577.64" cy="280.05" rx="37.14" ry="22.4" transform="translate(288.2 853.04) rotate(-89.06)"/></g><ellipse class="cls-3" cx="464.63" cy="278.44" rx="33.56" ry="15.25" transform="translate(173.21 735.05) rotate(-88.39)"/><g class="cls-10"><ellipse class="cls-9" cx="477.71" cy="276.73" rx="33.56" ry="15.25" transform="translate(187.64 746.46) rotate(-88.39)"/></g><ellipse class="cls-11" cx="639.68" cy="533.26" rx="121.68" ry="16.74"/><path class="cls-12" d="M639.66,173.91c.8,6.76-23.43,11.53-55.72,15.35s-63,9-63.8,2.25,28.61-22.91,60.9-26.73S638.86,167.15,639.66,173.91Z"/><path class="cls-4" d="M897.63,385.91c-.07,9-10.37,16.23-23,16.13s-42.39-7.65-42.32-16.66,30-16.07,42.58-16S897.7,376.9,897.63,385.91Z"/><path class="cls-4" d="M911.36,283.73c.15,4.5-4.83,8.32-11.14,8.54s-21.34-2.91-21.5-7.41,14.62-8.67,20.93-8.89S911.2,279.22,911.36,283.73Z"/><rect class="cls-13" x="150" y="690" width="46.67" height="9.33" rx="4"/><rect class="cls-13" x="150" y="708.67" width="65.33" height="9.33" rx="4"/><rect class="cls-13" x="252.67" y="690" width="46.67" height="9.33" rx="4"/><rect class="cls-13" x="234" y="708.67" width="65.33" height="9.33" rx="4"/><rect class="cls-14" x="150" y="727.33" width="149.33" height="9.33" rx="4"/><rect class="cls-15" x="262" y="764.67" width="37.33" height="9.33" rx="4"/><rect class="cls-15" x="262" y="783.33" width="37.33" height="9.33" rx="4"/><rect class="cls-16" x="262" y="802" width="37.33" height="9.33" rx="4"/><rect class="cls-16" x="262" y="820.67" width="37.33" height="9.33" rx="4"/><rect class="cls-15" x="206" y="764.67" width="37.33" height="9.33" rx="4"/><rect class="cls-15" x="150" y="764.67" width="37.33" height="9.33" rx="4"/><rect class="cls-14" x="262" y="746" width="37.33" height="9.33" rx="4"/><rect class="cls-14" x="196.67" y="746" width="56" height="9.33" rx="4"/><rect class="cls-14" x="150" y="746" width="37.33" height="9.33" rx="4"/><rect class="cls-15" x="150" y="783.33" width="37.33" height="9.33" rx="4"/><rect class="cls-16" x="150" y="802" width="37.33" height="9.33" rx="4"/><rect class="cls-16" x="150" y="820.67" width="37.33" height="9.33" rx="4"/><rect class="cls-14" x="318" y="746" width="37.33" height="9.33" rx="4"/><rect class="cls-15" x="318" y="764.67" width="37.33" height="9.33" rx="4"/><rect class="cls-14" x="430" y="746" width="37.33" height="9.33" rx="4"/><rect class="cls-14" x="318" y="727.33" width="56" height="9.33" rx="4"/><rect class="cls-14" x="411.33" y="727.33" width="56" height="9.33" rx="4"/><rect class="cls-15" x="318" y="783.33" width="56" height="9.33" rx="4"/><rect class="cls-15" x="411.33" y="783.33" width="56" height="9.33" rx="4"/><rect class="cls-15" x="430" y="764.67" width="37.33" height="9.33" rx="4"/><rect class="cls-13" x="355.33" y="690" width="74.67" height="9.33" rx="4"/><rect class="cls-13" x="327.33" y="708.67" width="130.67" height="9.33" rx="4"/><rect class="cls-16" x="327.33" y="802" width="130.67" height="9.33" rx="4"/><rect class="cls-16" x="355.33" y="820.67" width="74.67" height="9.33" rx="4"/><rect class="cls-14" x="654" y="746" width="37.33" height="9.33" rx="4"/><rect class="cls-15" x="654" y="764.67" width="37.33" height="9.33" rx="4"/><rect class="cls-14" x="766" y="746" width="37.33" height="9.33" rx="4"/><rect class="cls-14" x="654" y="727.33" width="56" height="9.33" rx="4"/><rect class="cls-14" x="533" y="727.33" width="56" height="9.33" rx="4"/><rect class="cls-14" x="747.33" y="727.33" width="56" height="9.33" rx="4"/><rect class="cls-15" x="654" y="783.33" width="56" height="9.33" rx="4"/><rect class="cls-15" x="747.33" y="783.33" width="56" height="9.33" rx="4"/><rect class="cls-15" x="766" y="764.67" width="37.33" height="9.33" rx="4"/><rect class="cls-13" x="691.33" y="690" width="74.67" height="9.33" rx="4"/><rect class="cls-13" x="663.33" y="708.67" width="130.67" height="9.33" rx="4"/><rect class="cls-16" x="663.33" y="802" width="130.67" height="9.33" rx="4"/><rect class="cls-16" x="691.33" y="820.67" width="74.67" height="9.33" rx="4"/><rect class="cls-14" x="980.67" y="746" width="37.33" height="9.33" rx="4"/><rect class="cls-15" x="980.67" y="764.67" width="37.33" height="9.33" rx="4"/><rect class="cls-14" x="1092.67" y="746" width="37.33" height="9.33" rx="4"/><rect class="cls-14" x="980.67" y="727.33" width="56" height="9.33" rx="4"/><rect class="cls-14" x="1074" y="727.33" width="56" height="9.33" rx="4"/><rect class="cls-15" x="980.67" y="783.33" width="56" height="9.33" rx="4"/><rect class="cls-15" x="1074" y="783.33" width="56" height="9.33" rx="4"/><rect class="cls-15" x="1092.67" y="764.67" width="37.33" height="9.33" rx="4"/><rect class="cls-13" x="1018" y="690" width="74.67" height="9.33" rx="4"/><rect class="cls-13" x="990" y="708.67" width="130.67" height="9.33" rx="4"/><rect class="cls-16" x="990" y="802" width="130.67" height="9.33" rx="4"/><rect class="cls-16" x="1018" y="820.67" width="74.67" height="9.33" rx="4"/><rect class="cls-13" x="486" y="690" width="149.33" height="9.33" rx="4"/><rect class="cls-13" x="486" y="708.67" width="149.33" height="9.33" rx="4"/><rect class="cls-15" x="532.67" y="764.67" width="56" height="9.33" rx="4"/><rect class="cls-14" x="532.67" y="746" width="56" height="9.33" rx="4"/><rect class="cls-15" x="532.67" y="783.33" width="56" height="9.33" rx="4"/><rect class="cls-16" x="532.67" y="802" width="56" height="9.33" rx="4"/><rect class="cls-16" x="532.67" y="820.67" width="56" height="9.33" rx="4"/><rect class="cls-13" x="822" y="708.67" width="56" height="9.33" rx="4"/><rect class="cls-13" x="822" y="690" width="56" height="9.33" rx="4"/><rect class="cls-14" x="822" y="727.33" width="93.33" height="9.33" rx="4"/><rect class="cls-14" x="822" y="746" width="74.67" height="9.33" rx="4"/><rect class="cls-15" x="822" y="764.67" width="93.33" height="9.33" rx="4"/><rect class="cls-15" x="822" y="783.33" width="112" height="9.33" rx="4"/><rect class="cls-16" x="822" y="802" width="56" height="9.33" rx="4"/><rect class="cls-16" x="822" y="820.67" width="56" height="9.33" rx="4"/><rect class="cls-13" x="887.33" y="708.67" width="56" height="9.33" rx="4"/><rect class="cls-13" x="906" y="690" width="65.33" height="9.33" rx="4"/><rect class="cls-16" x="896.67" y="802" width="56" height="9.33" rx="4"/><rect class="cls-16" x="915.33" y="820.67" width="56" height="9.33" rx="4"/></svg>