<svg xmlns="http://www.w3.org/2000/svg" viewBox="0 0 1000 1000"><defs><style>.cls-1{fill:#cc986d;}.cls-2{fill:#d59861;opacity:0.88;isolation:isolate;}.cls-3{fill:#bf7c4f;}.cls-4{fill:#93542a;}.cls-5{fill:#bc7846;}.cls-6{fill:#c48857;}.cls-7{fill:#f9f8f2;}.cls-8{fill:#603813;}.cls-9{fill:#c69c6d;}.cls-10{fill:#fff;}</style></defs><polygon class="cls-1" points="582.66 222.31 822.44 318.79 941.59 213.37 697.02 119 582.66 222.31"/><polygon class="cls-2" points="35.65 152.08 162.36 269.2 582.66 222.31 471.06 121.76 35.65 152.08"/><polygon class="cls-3" points="822.68 318.79 582.9 356.09 582.9 222.31 822.68 318.79"/><polygon class="cls-4" points="162.6 269.2 384.5 383.57 582.9 356.01 582.9 222.31 162.6 269.2"/><polygon class="cls-5" points="384.3 383.77 384.3 880.74 822.07 805.05 822.07 319.13 384.3 383.77"/><polygon class="cls-6" points="171.4 732.18 385 881 385 383.57 163.11 269.2 171.4 732.18"/><polygon class="cls-1" points="384.26 383.57 243.72 517.19 17.77 346.34 162.36 269.2 384.26 383.57"/><path class="cls-7" d="M784.54,618.86c.28,4.58-10.06,10.42-9.7,15s11.76,8.75,11.78,13.35S775,656,774.69,660.49s10.28,10.51,9.76,15-12.77,6.79-13.83,11.19,8.43,12,7,16.37S764,707.82,762.16,712s6.47,13.23,4.42,17.42-14.26,2.45-16.67,6.4,4.39,14.06,1.59,17.59-14.4.17-17.46,3.71,2.13,14.55-1.13,17.76-14.27-2.06-17.62,1.07-.16,14.77-3.86,17.91-13.79-4.29-17.8-1.92-2.48,14.56-6.6,16.58-12.95-6.38-17.26-4.61-4.73,13.9-9.15,15.32S648.9,811.1,644.35,812s-6.81,13-11.37,13.68-10.42-10.06-15-9.7-8.84,11.77-13.34,11.78-8.75-11.58-13.28-11.93-10.61,10.28-15.06,9.76-6.79-12.77-11.19-13.82-12,8.42-16.46,7-4.63-13.69-8.9-15.47-13.13,6.55-17.41,4.42-2.46-14.26-6.41-16.68-14.06,4.39-17.59,1.6-.16-14.4-3.71-17.46-14.55,2.12-17.76-1.22,2.05-14.27-1.07-17.62-14.69-.17-17.39-3.9,4.29-13.78,1.84-17.79-14.48-2.48-16.49-6.6,6.28-12.94,4.61-17.26-13.91-4.73-15.32-9.06,8.13-11.82,7.23-16.36-13-6.82-13.69-11.37,9.84-11.21,9.57-15.7-11.76-8.84-11.78-13.43,11.58-8.75,11.93-13.28-10.28-10.52-9.76-15.06,12.77-6.79,13.82-11.19-8.51-12-7-16.37,13.59-4.72,15.46-8.9-6.55-13.22-4.41-17.42,14.26-2.45,16.67-6.4-4.39-14.06-1.68-17.58,14.49-.18,17.46-3.63-2.13-14.64,1.13-17.75,14.36,2,17.62-1.07.17-14.78,4-17.4,13.78,4.21,17.79,1.84,2.48-14.56,6.6-16.58,12.94,6.38,17.26,4.61,4.64-13.9,9.06-15.32,11.81,8.13,16.27,7.24,6.9-13,11.46-13.69S588.47,477,593,476.63s8.84-11.76,13.43-11.78,8.67,11.59,13.28,11.93,10.52-10.28,15.06-9.76,7,13,11.75,14.41,12-8.42,16.38-7,4.72,13.69,8.89,15.47,13.22-6.55,17.42-4.42,2.46,14.26,6.32,16.68,14.06-4.39,17.59-1.6.25,14.4,3.71,17.46,14.55-2.12,17.76,1.22-2,14.28,1.07,17.62,14.77.17,17.39,3.9-4.21,13.78-1.84,17.8,14.48,2.48,16.58,6.59-6.37,13-4.61,17.26,13.9,4.73,15.32,9.06-8.13,11.81-7.32,16.36S783.84,614.57,784.54,618.86Z"/><path class="cls-8" d="M781.47,619.31c.11,1.67-3.86,4.83-5,6.14a12.54,12.54,0,0,0-4.73,8,10.6,10.6,0,0,0,5.17,7.91l4,3.12c.65.58,2.68,1.87,2.65,2.84h0a4.67,4.67,0,0,1-1.08,1.22,34.73,34.73,0,0,1-4,3.07,17,17,0,0,0-6.39,6.84,8.81,8.81,0,0,0,2.65,8.68c1,1.35,2.27,2.52,3.41,3.78s2.62,2.31,3,3.71-2.93,2.74-4.3,3.53a22.73,22.73,0,0,0-8.51,5.47c-4.59,6,3.3,12.18,5.47,17.35.05.79.6,1,.09,1.41a22.68,22.68,0,0,1-3.69,1.81A39.24,39.24,0,0,0,761,708c-6.26,4.71-.59,12.24,1.07,17.62a6.16,6.16,0,0,1,.14,2.38c0,.7-2.32,1-3,1.16a45.1,45.1,0,0,0-9.14,2.41c-7.4,3.45-3.09,11.68-1.84,17.79,0,.62.67,2.35.17,2.82s-2.64.16-3.35.21a53.43,53.43,0,0,0-10,.6c-8.18,2.18-5.16,11.19-4.79,17.27,0,.7.14,2.2-.27,2.76a8.91,8.91,0,0,1-2.91.17,58.7,58.7,0,0,0-10-1.25c-8,.49-6.95,9.27-7.3,15.21,0,.88.17,2.82-.67,3.58s-1.05.06-1.93.12c-3.31-.6-6.41-2.18-9.81-2.68a7.51,7.51,0,0,0-8,3,26.55,26.55,0,0,0-2.69,9.63,28.7,28.7,0,0,1-1,3.77c.06.88.06.88-1.37.7a48.9,48.9,0,0,1-9.09-4,8.22,8.22,0,0,0-8.81.53,18.91,18.91,0,0,0-4.52,8.41,35.27,35.27,0,0,1-1.69,4.35,5.58,5.58,0,0,1-.73.94l-2,.12a7.65,7.65,0,0,1-3-1.53L650,810.84a9.77,9.77,0,0,0-8.73-2.05,13.59,13.59,0,0,0-6,7.07c-.78,1.34-1.47,2.67-2.25,3.93a25.32,25.32,0,0,1-1.6,2c-.78,0-2-1.09-2.51-1.57s-2.55-2.43-3.83-3.64a12.82,12.82,0,0,0-7.49-4.28,11,11,0,0,0-8.29,5.24c-1,1.35-3.75,6.25-5.55,6.27s-3.69-4.08-4.54-5.23a15,15,0,0,0-6.65-6.05,8.58,8.58,0,0,0-8.43,2.75c-1.31,1.11-2.52,2.39-3.83,3.59s-2.26,2.37-3.45,2.62-.43,0-1-.8a18,18,0,0,1-2.4-4.08,21.72,21.72,0,0,0-5.27-7.51,7.72,7.72,0,0,0-8.57.53,90.41,90.41,0,0,1-8.28,5.4l-2.78.17a15.91,15.91,0,0,1-1.84-4.07c-2-5.63-4.07-13.11-11.64-11.15-3.48.92-6.54,3-9.83,4.14a7.87,7.87,0,0,1-2.11.13c-.92-.48-1.15-2.85-1.29-3.64-1.26-6.2-1.77-14.75-10.21-13.88a94.1,94.1,0,0,0-9.76,2.45,6.45,6.45,0,0,1-2.55.15c-.74-.57-.18-2.91-.22-3.7-.37-6,.78-14.81-7.57-15.37-3.44,0-6.89.2-10.33.24l-2.64.16c-.33.41-.13-2.17-.18-2.87.61-6,3.18-14.61-4.72-16.6a42.87,42.87,0,0,0-9.59-.75,6.86,6.86,0,0,1-3.37-.59l-.13-2.2c.95-5.63,5.93-13.89-1.19-17.61a29.08,29.08,0,0,0-9-2.55,14.39,14.39,0,0,1-4.22-1.16c-.53,0-.44,0-.09-1.41,1.34-5.56,8.09-12.34,3.25-17.88a20,20,0,0,0-8.4-4.35,35.9,35.9,0,0,1-4.35-1.69c-.82-.48-1.1-.64-1.13-1.17s1.43-2.65,2-3.57,2.13-2.87,3.09-4.43a9.52,9.52,0,0,0,1.85-9,15.56,15.56,0,0,0-7.44-6c-1.28-.72-2.74-1.43-4-2.32a14.85,14.85,0,0,1-1.77-1.49c-.06-1,1.36-2.38,1.94-2.95l3.66-3.84a11,11,0,0,0,4.09-8.3,12.23,12.23,0,0,0-5.58-7.44c-1.39-1.07-6.14-3.7-6.17-5.55s4.45-4,5.63-4.85a15.09,15.09,0,0,0,6-6.82,9.74,9.74,0,0,0-3.26-8.65l-3.31-3.51c-.76-.84-2.53-2.32-2.69-3.55s0-.62,1-1.21a23.11,23.11,0,0,1,4-2.28,20.42,20.42,0,0,0,7.8-5.6c4.3-6.27-6.31-17.3-6.31-17.3l-.09-1.48a10.46,10.46,0,0,1,3.83-1.73,27.52,27.52,0,0,0,8.5-3.88c6-5-.14-12.46-1.94-17.57a8.81,8.81,0,0,1-.11-1.85c.47-.91,2.82-1.14,3.59-1.28a35.5,35.5,0,0,0,10-2.46c7.12-3.7,2.14-12.24,1.2-17.76l-.13-2c0-.36,3.14-.19,3.92-.24a34.33,34.33,0,0,0,10-.61c7.62-2.67,4-11.74,3.9-17.92,0-.62-.12-1.85.3-2.14s2.79-.17,3.49-.21a39.39,39.39,0,0,0,10.1.89c7.71-1.09,6.38-10,6.83-15.71a7.17,7.17,0,0,1,.51-3l3.94-.24c3.31.7,6.4,2.22,9.79,2.73,8.27,1,9.1-7.2,10.31-13.47a14.3,14.3,0,0,1,1.09-3.75c0-.54.53,0,1.59-.1,3.23,1,6.1,3.14,9.08,4.3a8,8,0,0,0,8.77-1,21.6,21.6,0,0,0,4.39-9.25,16.24,16.24,0,0,1,1.69-4.14c.47-.93.55-1.11,1.08-1.06a9.39,9.39,0,0,1,3.56,1.94c1.57,1.16,3,2.33,4.62,3.32a9.33,9.33,0,0,0,8.93,1.7,16,16,0,0,0,6.06-7.73c.72-1.31,2.75-5.65,3.71-5.71s2.39,1.47,2.95,2,2.63,2.62,4,3.88a10.55,10.55,0,0,0,8,4,12.37,12.37,0,0,0,7.68-5.86c1.06-1.41,2.12-2.91,3.27-4.33a7.28,7.28,0,0,1,2-1.74c1.67-.1,4.27,4.87,5.23,6.15a13.27,13.27,0,0,0,6.88,5.78,9.66,9.66,0,0,0,8.63-3.39c1.34-1.16,2.58-2.5,3.92-3.74s2-2.19,3.12-2.35.83.49,1.32,1.27a35,35,0,0,1,2.47,4.34,19.23,19.23,0,0,0,5.4,7.58,8.07,8.07,0,0,0,8.79-.54,39.17,39.17,0,0,1,8.5-5.45c.71-.05.62,0,1.09.47a18.79,18.79,0,0,1,1.85,4.29,26.09,26.09,0,0,0,3.8,8.75,7.24,7.24,0,0,0,8.41,1.92c3.38-1,6.25-3.17,9.55-4.18.88-.05,1.38-.53,1.84-.11a10.41,10.41,0,0,1,1.13,4,29.79,29.79,0,0,0,2.55,10,7.2,7.2,0,0,0,8,3.47c3.43-.21,6.49-2,9.82-2.57a7.58,7.58,0,0,1,2-.13c.83.58.2,3.4.26,4.3.38,6.35-.42,14.85,8,15.06l10.37-.63a4.72,4.72,0,0,1,2.11-.13c.58.68.19,3.13.24,3.94-.67,6.32-2.73,14.62,5.41,16.38a67.31,67.31,0,0,0,10.24,0c.71,0,2.82-.17,3.32.79s-.4,2.18-.47,2.54c-1.31,5.92-5.84,14.28,1.09,17.9a36.69,36.69,0,0,0,9,2.33,7.89,7.89,0,0,1,3.42,1.14c.44,0,.44,0,.1,1.52-1.6,5.67-8.65,13.19-2.7,18.13a23.69,23.69,0,0,0,8.45,4,30.39,30.39,0,0,1,3.9,1.65s.91.57,1,.84h0a10.13,10.13,0,0,1-2.32,4c-.88,1.4-1.87,2.63-2.67,4a9.82,9.82,0,0,0-1.92,9.1,14.32,14.32,0,0,0,7,6c1.46.9,6,2.69,6.35,4.28.85,3.9,6.89,3,6-.9a11.07,11.07,0,0,0-6.07-6.91l-4.66-2.59c-.82-.49-2.46-1.29-2.87-2.25s3-5.66,4-7.07a13,13,0,0,0,3.24-9.18c-.21-3.31-3.76-5.07-6.56-6.25l-4.52-1.61a11.52,11.52,0,0,1-4.18-2l-.08-1.44a23.74,23.74,0,0,1,2.32-5.35,16.47,16.47,0,0,0,2.62-9.14c-1.23-7.2-11.12-5.79-16.11-8-.88.05-1,.06-1.12-1a11.12,11.12,0,0,1,1-4.73,23.76,23.76,0,0,0,2.32-9.84c-1.26-7.65-10.95-5.81-16.29-6.47a9.23,9.23,0,0,1-2.32-.49c-.67-.86-.18-3-.24-3.85a38.51,38.51,0,0,0,.78-10.55c-1.43-8.9-11-5.62-16.82-5.09a7.25,7.25,0,0,1-2.82.17c-.83-.58-.71-3-.76-3.91A46.3,46.3,0,0,0,717,501.5c-2.62-8.28-11.63-3.87-17.28-2.54-.71,0-2.6.78-3.26.19s-.86-2.55-1-3.26a46,46,0,0,0-2.4-10.36c-3.82-7.68-12.13-2-17.63.26-.71,0-2.32,1.13-3.05.72S671.34,484.6,671,484a70.21,70.21,0,0,0-3.57-9.3,6.94,6.94,0,0,0-7.49-4.13,27.33,27.33,0,0,0-9.12,5.23,10.6,10.6,0,0,1-3.68,2c-.7,0-1-.39-1.57-1.26-1.94-2.75-3.11-6-5-8.68a7.47,7.47,0,0,0-7.48-4,17.58,17.58,0,0,0-8.48,5.73,23.45,23.45,0,0,1-3.86,3.38c-1,.6-.93.59-1.75.1a44.29,44.29,0,0,1-6-7.54,8.8,8.8,0,0,0-7.84-4,13.88,13.88,0,0,0-7.56,6.3c-1.07,1.32-3.55,5.6-5.14,5.52s-2.21-1.57-3-2.16l-3.8-4.53a9.85,9.85,0,0,0-8.33-3.45c-3.23.65-5.15,4-6.66,6.7s-1.5,3-2.38,4.36-1.34,2.78-2.39,2.93a12.79,12.79,0,0,1-2.28-1.21c-1.56-1-3-2.15-4.61-3.22a11.87,11.87,0,0,0-9-3.14c-3.23.74-4.88,4.07-6,6.93s-1.13,3.21-1.73,4.86-.87,3.11-1.89,3.8-5-1.58-6.5-2.3a15.28,15.28,0,0,0-9-2.69,8,8,0,0,0-5.69,6.55,61.07,61.07,0,0,1-2.22,10c.05.81.05.81-1,1a13.17,13.17,0,0,1-4.83-1,21.26,21.26,0,0,0-10-1.82,7.23,7.23,0,0,0-5.51,6.71c-.59,3.27-.21,6.66-.62,10a7.24,7.24,0,0,1-.5,2.1c-.83.76-3.34.2-4.3.26-6-.81-15.09-2.77-15.7,6.16l.65,10.65.14,2.38c-.3.37-3.4.2-4.28.26-6.08.37-15.42-.48-14.88,8.33a69.11,69.11,0,0,0,2.46,10c.05.79.68,2.34.18,2.9s-2.51,1-3.21,1.08c-5.84,1.24-15.54,1.74-14,9.7a63.31,63.31,0,0,0,4.06,10.09c0,.62,1,2.15.7,2.79a8.16,8.16,0,0,1-2.82,1.5c-5,2-14.55,3.62-12.76,11.21a30.31,30.31,0,0,0,5.15,9.15,8,8,0,0,1,1.8,3.42c0,.71-.72,1.29-1.57,1.87-4.5,3-13.73,5.34-12.15,12.5a20.94,20.94,0,0,0,6,8.47,22.71,22.71,0,0,1,2.95,3.54c.59.94.59.94.12,1.85-3.46,4.19-12.58,7-11.19,13.85.65,3.32,3.88,5.6,6.39,7.57s5.33,3.39,5.25,5-1.88,2.59-2.54,3.34-2.5,2.45-3.66,3.76a9.85,9.85,0,0,0-3.39,8.25c.65,3.41,4.13,5.41,6.87,6.92s6.63,2.78,6.82,4.54-.85,2-1.26,2.55-2.19,3.14-3.25,4.71a11.2,11.2,0,0,0-2.72,9,10.31,10.31,0,0,0,6.89,5.78l4.61,1.66c1.09.38,3.06.88,3.74,1.9s-1.79,5.5-2.58,7a14.81,14.81,0,0,0-2.28,9c1.76,7.23,11.52,4.87,16.48,7.84.83.48.7,0,.77,1.11a13.37,13.37,0,0,1-1.2,4.93,20.2,20.2,0,0,0-1.61,9.91c1.51,7.34,11.46,5.23,16.72,6,.88,0,1.68-.1,1.91.86a7.32,7.32,0,0,1,.24,3.88,31.5,31.5,0,0,0-.62,10.29c1.77,8.74,11.87,4.68,18,4.57.79,0,1.85-.11,2.23.4s.19,3.08.25,4.05a31.08,31.08,0,0,0,.62,10.31c2.95,7.78,12.29,2.79,17.75,1.07l2.47-.15a17.69,17.69,0,0,1,1.24,4.49,32.38,32.38,0,0,0,2.46,9.93c4.08,7.36,12.55,1.28,17.62-1.07.71,0,2-.73,2.56-.15a12.66,12.66,0,0,1,1.68,3,53.14,53.14,0,0,0,3.67,9.42c4.67,7.05,11.82,1.05,16.84-2.17,2.47-1.66,3.39-2.51,5-.31s2.92,5.92,4.85,8.55a7.41,7.41,0,0,0,7.64,3.51,20.67,20.67,0,0,0,8.46-6.26c1.59-1.42,3.47-4,5.25-2.44a70.91,70.91,0,0,1,6.11,7.5,8.13,8.13,0,0,0,8.08,3.49,16.16,16.16,0,0,0,7.55-6.74c1.06-1.48,3.31-5.24,5-4.63s5.05,4.55,7.2,6.46a8.83,8.83,0,0,0,9,2.72,13.61,13.61,0,0,0,6.3-7c.79-1.47,2.8-6.36,4.38-6.46s2.27,1,3,1.5l4.44,3.18a10.68,10.68,0,0,0,9,2.46,11.07,11.07,0,0,0,5.41-7l1.73-4.88a4.83,4.83,0,0,1,1.67-3.2c.85-.58,5.59,1.79,7.14,2.58a14.06,14.06,0,0,0,9,2.19c3.49-.83,4.87-4.27,5.57-7.41a30.53,30.53,0,0,1,2.19-9c0-.62,0-.62,1.29-.61a23.58,23.58,0,0,1,5,1.29,18.6,18.6,0,0,0,10,1.43,7.77,7.77,0,0,0,5.13-7.21c.42-3.3-.41-6.7.55-9.85,0-.79-.07-1.23.79-1.55a10.2,10.2,0,0,1,4.53.25,27.68,27.68,0,0,0,10.1.45,7,7,0,0,0,5-7.11c-.22-3.62-1-7.11-.64-10.66,0-.8-.1-1.59.49-2s3.18-.19,4.32-.26a28.85,28.85,0,0,0,10.31-.63,6.88,6.88,0,0,0,4-7.66,85.33,85.33,0,0,1-1.77-10.15l-.15-2.38c-.8-.4,2.08-1,3-1.16,6-1.16,15.34-2.17,13.14-10.79q-1.82-5-4.13-9.83a5.28,5.28,0,0,1-.14-2.2c.48-.91,2.48-1.39,3.34-1.79,5.45-2,14.7-4,12-12a43.88,43.88,0,0,0-5.38-8.52c-1.58-2.64-1.87-3.16.77-4.82,4.6-2.84,14.07-5.63,11.41-13a23.05,23.05,0,0,0-6.14-7.94A13.46,13.46,0,0,1,779,661.9a2,2,0,0,1,.43-1.7c3.64-4.12,13.34-7.45,10.87-14.55a16.56,16.56,0,0,0-6.43-6.94c-1.3-1-5.15-3.32-5-4.83s1.71-2.4,2.37-3.15l3.41-3.57a11,11,0,0,0,3.83-8.28C787.19,614.37,781.15,615.35,781.47,619.31Z"/><path d="M665.74,555.14l36.31-9.63a27.19,27.19,0,0,1,33.1,19.54l14,54.3a4.51,4.51,0,0,1-6.87,4.76L663.23,569a7.51,7.51,0,0,1,2.51-13.82Z"/><path d="M518.14,579.15l-37.49,2.37a27.2,27.2,0,0,0-25.21,29l3.91,56a4.51,4.51,0,0,0,8,2.33l57.52-77.37a7.51,7.51,0,0,0-6.75-12.31Z"/><path class="cls-9" d="M724.6,628.71c9.72,58-37.46,102.95-103.47,113.87s-125.08-16.13-134.8-74.17,36.71-109,102.42-119.82S715,570.74,724.6,628.71Z"/><circle class="cls-10" cx="550" cy="651.42" r="22.69" transform="translate(-234.65 318) rotate(-26.8)"/><circle cx="554.41" cy="656.89" r="16.15"/><circle class="cls-10" cx="658.8" cy="633.36" r="22.69"/><circle cx="656.42" cy="639.87" r="16.15"/><path class="cls-8" d="M687.23,677.86l-47.56-39.37a52.14,52.14,0,0,0-67.79,11.28l-31.83,52.65a35.38,35.38,0,0,0-3.8,31.63,144.14,144.14,0,0,0,84.14,8.74c29.49-4.18,55-14.52,80.67-38.76C700.26,694,695.36,683.87,687.23,677.86Z"/><path d="M621.72,640.47c-.31-4.12-8.45-6.15-17.45-4.64s-15.75,6-15.07,10,10.19,16.27,19.2,14.76S622.4,644.49,621.72,640.47Z"/><path class="cls-8" d="M685.5,613.31c-5.89,1.11-11.41-.58-17.12-3.22s-10.53-5.2-13.94-10.17c-4.12-6-12.88,1.15-8.79,7.13,4.64,6.79,11,10.25,18.74,13.63s15.06,5.28,23,3.79c7.15-1.34,5.29-12.51-1.9-11.16Z"/><path class="cls-8" d="M518.43,640.49c5.94-.82,10.64-4.17,15.22-8.48s8.35-8.27,10-14.07c2-7,12.58-3,10.6,4-2.26,7.91-7.17,13.2-13.45,18.87s-12.62,9.78-20.63,10.88c-7.2,1-9-10.19-1.74-11.18Z"/><path d="M593.79,705.4l7.92-7.92c3-3,6-7.39,10.06-8.92,7.4-2.84,18.08,4.81,24.83,7.92,7.24,3.34,11.63-8.21,4.44-11.52-9.86-4.55-20-11.67-31.32-8.65-9.73,2.6-16.88,12.65-23.79,19.57-5.56,5.57,2.23,15.16,7.86,9.52Z"/><polygon class="cls-1" points="384.26 383.57 534.3 533.61 982.23 445.58 822.44 318.79 384.26 383.57"/></svg>